{
.appVersion = "1141";
DisplayStrings = (
"/uniE278"
);
date = "2018-06-13 20:33:35 +0000";
familyName = "PETSCII EXTENDED";
fontMaster = (
{
ascender = 800;
capHeight = 800;
descender = 0;
id = "B559EE20-1059-4689-9947-DD10A3112B42";
xHeight = 600;
}
);
glyphs = (
{
glyphname = A;
lastChange = "2018-06-13 20:37:34 +0000";
layers = (
{
layerId = "B559EE20-1059-4689-9947-DD10A3112B42";
paths = (
{
closed = 1;
nodes = (
"300 100 LINE",
"300 400 LINE",
"500 400 LINE",
"500 100 LINE",
"700 100 LINE",
"700 600 LINE",
"600 600 LINE",
"600 700 LINE",
"500 700 LINE",
"500 800 LINE",
"300 800 LINE",
"300 700 LINE",
"200 700 LINE",
"200 600 LINE",
"100 600 LINE",
"100 100 LINE"
);
},
{
closed = 1;
nodes = (
"300 600 LINE",
"500 600 LINE",
"500 500 LINE",
"300 500 LINE"
);
}
);
width = 800;
}
);
unicode = 0041;
},
{
glyphname = B;
lastChange = "2018-06-13 20:38:04 +0000";
layers = (
{
layerId = "B559EE20-1059-4689-9947-DD10A3112B42";
paths = (
{
closed = 1;
nodes = (
"600 100 LINE",
"600 200 LINE",
"700 200 LINE",
"700 400 LINE",
"600 400 LINE",
"600 500 LINE",
"700 500 LINE",
"700 700 LINE",
"600 700 LINE",
"600 800 LINE",
"100 800 LINE",
"100 100 LINE"
);
},
{
closed = 1;
nodes = (
"300 400 LINE",
"500 400 LINE",
"500 200 LINE",
"300 200 LINE"
);
},
{
closed = 1;
nodes = (
"300 700 LINE",
"500 700 LINE",
"500 500 LINE",
"300 500 LINE"
);
}
);
width = 800;
}
);
unicode = 0042;
},
{
glyphname = C;
lastChange = "2018-06-13 20:38:20 +0000";
layers = (
{
layerId = "B559EE20-1059-4689-9947-DD10A3112B42";
paths = (
{
closed = 1;
nodes = (
"600 100 LINE",
"600 200 LINE",
"700 200 LINE",
"700 300 LINE",
"500 300 LINE",
"500 200 LINE",
"300 200 LINE",
"300 700 LINE",
"500 700 LINE",
"500 600 LINE",
"700 600 LINE",
"700 700 LINE",
"600 700 LINE",
"600 800 LINE",
"200 800 LINE",
"200 700 LINE",
"100 700 LINE",
"100 200 LINE",
"200 200 LINE",
"200 100 LINE"
);
}
);
width = 800;
}
);
unicode = 0043;
},
{
glyphname = D;
lastChange = "2018-06-13 20:38:33 +0000";
layers = (
{
layerId = "B559EE20-1059-4689-9947-DD10A3112B42";
paths = (
{
closed = 1;
nodes = (
"500 100 LINE",
"500 200 LINE",
"600 200 LINE",
"600 300 LINE",
"700 300 LINE",
"700 600 LINE",
"600 600 LINE",
"600 700 LINE",
"500 700 LINE",
"500 800 LINE",
"100 800 LINE",
"100 100 LINE"
);
},
{
closed = 1;
nodes = (
"300 700 LINE",
"400 700 LINE",
"400 600 LINE",
"500 600 LINE",
"500 300 LINE",
"400 300 LINE",
"400 200 LINE",
"300 200 LINE"
);
}
);
width = 800;
}
);
unicode = 0044;
},
{
glyphname = E;
lastChange = "2018-06-13 20:38:46 +0000";
layers = (
{
layerId = "B559EE20-1059-4689-9947-DD10A3112B42";
paths = (
{
closed = 1;
nodes = (
"100 800 LINE",
"100 100 LINE",
"700 100 LINE",
"700 200 LINE",
"300 200 LINE",
"300 400 LINE",
"500 400 LINE",
"500 500 LINE",
"300 500 LINE",
"300 700 LINE",
"700 700 LINE",
"700 800 LINE"
);
}
);
width = 800;
}
);
unicode = 0045;
},
{
glyphname = F;
lastChange = "2018-06-13 20:38:58 +0000";
layers = (
{
layerId = "B559EE20-1059-4689-9947-DD10A3112B42";
paths = (
{
closed = 1;
nodes = (
"300 100 LINE",
"300 400 LINE",
"500 400 LINE",
"500 500 LINE",
"300 500 LINE",
"300 700 LINE",
"700 700 LINE",
"700 800 LINE",
"100 800 LINE",
"100 100 LINE"
);
}
);
width = 800;
}
);
unicode = 0046;
},
{
glyphname = G;
lastChange = "2018-06-13 20:39:13 +0000";
layers = (
{
layerId = "B559EE20-1059-4689-9947-DD10A3112B42";
paths = (
{
closed = 1;
nodes = (
"600 100 LINE",
"600 200 LINE",
"700 200 LINE",
"700 500 LINE",
"400 500 LINE",
"400 400 LINE",
"500 400 LINE",
"500 200 LINE",
"300 200 LINE",
"300 700 LINE",
"500 700 LINE",
"500 600 LINE",
"700 600 LINE",
"700 700 LINE",
"600 700 LINE",
"600 800 LINE",
"200 800 LINE",
"200 700 LINE",
"100 700 LINE",
"100 200 LINE",
"200 200 LINE",
"200 100 LINE"
);
}
);
width = 800;
}
);
unicode = 0047;
},
{
glyphname = H;
lastChange = "2018-06-13 20:39:29 +0000";
layers = (
{
layerId = "B559EE20-1059-4689-9947-DD10A3112B42";
paths = (
{
closed = 1;
nodes = (
"300 100 LINE",
"300 400 LINE",
"500 400 LINE",
"500 100 LINE",
"700 100 LINE",
"700 800 LINE",
"500 800 LINE",
"500 500 LINE",
"300 500 LINE",
"300 800 LINE",
"100 800 LINE",
"100 100 LINE"
);
}
);
width = 800;
}
);
unicode = 0048;
},
{
glyphname = I;
lastChange = "2018-06-13 20:39:42 +0000";
layers = (
{
layerId = "B559EE20-1059-4689-9947-DD10A3112B42";
paths = (
{
closed = 1;
nodes = (
"200 800 LINE",
"200 700 LINE",
"300 700 LINE",
"300 200 LINE",
"200 200 LINE",
"200 100 LINE",
"600 100 LINE",
"600 200 LINE",
"500 200 LINE",
"500 700 LINE",
"600 700 LINE",
"600 800 LINE"
);
}
);
width = 800;
}
);
unicode = 0049;
},
{
glyphname = J;
lastChange = "2018-06-13 20:39:55 +0000";
layers = (
{
layerId = "B559EE20-1059-4689-9947-DD10A3112B42";
paths = (
{
closed = 1;
nodes = (
"500 100 LINE",
"500 200 LINE",
"600 200 LINE",
"600 700 LINE",
"700 700 LINE",
"700 800 LINE",
"300 800 LINE",
"300 700 LINE",
"400 700 LINE",
"400 200 LINE",
"300 200 LINE",
"300 300 LINE",
"100 300 LINE",
"100 200 LINE",
"200 200 LINE",
"200 100 LINE"
);
}
);
width = 800;
}
);
unicode = 004A;
},
{
glyphname = K;
lastChange = "2018-06-13 20:40:07 +0000";
layers = (
{
layerId = "B559EE20-1059-4689-9947-DD10A3112B42";
paths = (
{
closed = 1;
nodes = (
"300 100 LINE",
"300 300 LINE",
"400 300 LINE",
"400 200 LINE",
"500 200 LINE",
"500 100 LINE",
"700 100 LINE",
"700 200 LINE",
"600 200 LINE",
"600 300 LINE",
"500 300 LINE",
"500 400 LINE",
"400 400 LINE",
"400 500 LINE",
"500 500 LINE",
"500 600 LINE",
"600 600 LINE",
"600 700 LINE",
"700 700 LINE",
"700 800 LINE",
"500 800 LINE",
"500 700 LINE",
"400 700 LINE",
"400 600 LINE",
"300 600 LINE",
"300 800 LINE",
"100 800 LINE",
"100 100 LINE"
);
}
);
width = 800;
}
);
unicode = 004B;
},
{
glyphname = L;
lastChange = "2018-06-13 20:40:24 +0000";
layers = (
{
layerId = "B559EE20-1059-4689-9947-DD10A3112B42";
paths = (
{
closed = 1;
nodes = (
"100 800 LINE",
"100 100 LINE",
"700 100 LINE",
"700 200 LINE",
"300 200 LINE",
"300 800 LINE"
);
}
);
width = 800;
}
);
unicode = 004C;
},
{
glyphname = M;
lastChange = "2018-06-13 20:40:43 +0000";
layers = (
{
layerId = "B559EE20-1059-4689-9947-DD10A3112B42";
paths = (
{
closed = 1;
nodes = (
"300 100 LINE",
"300 500 LINE",
"400 500 LINE",
"400 400 LINE",
"500 400 LINE",
"500 500 LINE",
"600 500 LINE",
"600 100 LINE",
"800 100 LINE",
"800 800 LINE",
"600 800 LINE",
"600 700 LINE",
"500 700 LINE",
"500 600 LINE",
"400 600 LINE",
"400 700 LINE",
"300 700 LINE",
"300 800 LINE",
"100 800 LINE",
"100 100 LINE"
);
}
);
width = 800;
}
);
unicode = 004D;
},
{
glyphname = N;
lastChange = "2018-06-13 20:40:56 +0000";
layers = (
{
layerId = "B559EE20-1059-4689-9947-DD10A3112B42";
paths = (
{
closed = 1;
nodes = (
"300 100 LINE",
"300 400 LINE",
"400 400 LINE",
"400 300 LINE",
"500 300 LINE",
"500 100 LINE",
"700 100 LINE",
"700 800 LINE",
"500 800 LINE",
"500 600 LINE",
"400 600 LINE",
"400 700 LINE",
"300 700 LINE",
"300 800 LINE",
"100 800 LINE",
"100 100 LINE"
);
}
);
width = 800;
}
);
unicode = 004E;
},
{
glyphname = O;
lastChange = "2018-06-13 20:41:13 +0000";
layers = (
{
layerId = "B559EE20-1059-4689-9947-DD10A3112B42";
paths = (
{
closed = 1;
nodes = (
"600 100 LINE",
"600 200 LINE",
"700 200 LINE",
"700 700 LINE",
"600 700 LINE",
"600 800 LINE",
"200 800 LINE",
"200 700 LINE",
"100 700 LINE",
"100 200 LINE",
"200 200 LINE",
"200 100 LINE"
);
},
{
closed = 1;
nodes = (
"300 700 LINE",
"500 700 LINE",
"500 200 LINE",
"300 200 LINE"
);
}
);
width = 800;
}
);
unicode = 004F;
},
{
glyphname = P;
lastChange = "2018-06-13 20:41:38 +0000";
layers = (
{
layerId = "B559EE20-1059-4689-9947-DD10A3112B42";
paths = (
{
closed = 1;
nodes = (
"300 100 LINE",
"300 400 LINE",
"600 400 LINE",
"600 500 LINE",
"700 500 LINE",
"700 700 LINE",
"600 700 LINE",
"600 800 LINE",
"100 800 LINE",
"100 100 LINE"
);
},
{
closed = 1;
nodes = (
"300 700 LINE",
"500 700 LINE",
"500 500 LINE",
"300 500 LINE"
);
}
);
width = 800;
}
);
unicode = 0050;
},
{
glyphname = Q;
lastChange = "2018-06-13 20:41:43 +0000";
layers = (
{
layerId = "B559EE20-1059-4689-9947-DD10A3112B42";
paths = (
{
closed = 1;
nodes = (
"700 100 LINE",
"700 200 LINE",
"600 200 LINE",
"600 300 LINE",
"700 300 LINE",
"700 700 LINE",
"600 700 LINE",
"600 800 LINE",
"200 800 LINE",
"200 700 LINE",
"100 700 LINE",
"100 300 LINE",
"200 300 LINE",
"200 200 LINE",
"400 200 LINE",
"400 100 LINE"
);
},
{
closed = 1;
nodes = (
"300 700 LINE",
"500 700 LINE",
"500 300 LINE",
"300 300 LINE"
);
}
);
width = 800;
}
);
unicode = 0051;
},
{
glyphname = R;
lastChange = "2018-06-13 20:41:51 +0000";
layers = (
{
layerId = "B559EE20-1059-4689-9947-DD10A3112B42";
paths = (
{
closed = 1;
nodes = (
"300 100 LINE",
"300 300 LINE",
"400 300 LINE",
"400 200 LINE",
"500 200 LINE",
"500 100 LINE",
"700 100 LINE",
"700 200 LINE",
"600 200 LINE",
"600 300 LINE",
"500 300 LINE",
"500 400 LINE",
"600 400 LINE",
"600 500 LINE",
"700 500 LINE",
"700 700 LINE",
"600 700 LINE",
"600 800 LINE",
"100 800 LINE",
"100 100 LINE"
);
},
{
closed = 1;
nodes = (
"300 700 LINE",
"500 700 LINE",
"500 500 LINE",
"300 500 LINE"
);
}
);
width = 800;
}
);
unicode = 0052;
},
{
glyphname = S;
lastChange = "2018-06-13 20:42:02 +0000";
layers = (
{
layerId = "B559EE20-1059-4689-9947-DD10A3112B42";
paths = (
{
closed = 1;
nodes = (
"600 100 LINE",
"600 200 LINE",
"700 200 LINE",
"700 400 LINE",
"600 400 LINE",
"600 500 LINE",
"300 500 LINE",
"300 700 LINE",
"500 700 LINE",
"500 600 LINE",
"700 600 LINE",
"700 700 LINE",
"600 700 LINE",
"600 800 LINE",
"200 800 LINE",
"200 700 LINE",
"100 700 LINE",
"100 500 LINE",
"200 500 LINE",
"200 400 LINE",
"500 400 LINE",
"500 200 LINE",
"300 200 LINE",
"300 300 LINE",
"100 300 LINE",
"100 200 LINE",
"200 200 LINE",
"200 100 LINE"
);
}
);
width = 800;
}
);
unicode = 0053;
},
{
glyphname = T;
lastChange = "2018-06-13 20:42:09 +0000";
layers = (
{
layerId = "B559EE20-1059-4689-9947-DD10A3112B42";
paths = (
{
closed = 1;
nodes = (
"500 100 LINE",
"500 700 LINE",
"700 700 LINE",
"700 800 LINE",
"100 800 LINE",
"100 700 LINE",
"300 700 LINE",
"300 100 LINE"
);
}
);
width = 800;
}
);
unicode = 0054;
},
{
glyphname = U;
lastChange = "2018-06-13 20:42:24 +0000";
layers = (
{
layerId = "B559EE20-1059-4689-9947-DD10A3112B42";
paths = (
{
closed = 1;
nodes = (
"600 100 LINE",
"600 200 LINE",
"700 200 LINE",
"700 800 LINE",
"500 800 LINE",
"500 200 LINE",
"300 200 LINE",
"300 800 LINE",
"100 800 LINE",
"100 200 LINE",
"200 200 LINE",
"200 100 LINE"
);
}
);
width = 800;
}
);
unicode = 0055;
},
{
glyphname = V;
lastChange = "2018-06-13 20:42:42 +0000";
layers = (
{
layerId = "B559EE20-1059-4689-9947-DD10A3112B42";
paths = (
{
closed = 1;
nodes = (
"500 100 LINE",
"500 200 LINE",
"600 200 LINE",
"600 300 LINE",
"700 300 LINE",
"700 800 LINE",
"500 800 LINE",
"500 300 LINE",
"300 300 LINE",
"300 800 LINE",
"100 800 LINE",
"100 300 LINE",
"200 300 LINE",
"200 200 LINE",
"300 200 LINE",
"300 100 LINE"
);
}
);
width = 800;
}
);
unicode = 0056;
},
{
glyphname = W;
lastChange = "2018-06-13 20:43:00 +0000";
layers = (
{
layerId = "B559EE20-1059-4689-9947-DD10A3112B42";
paths = (
{
closed = 1;
nodes = (
"600 800 LINE",
"600 400 LINE",
"500 400 LINE",
"500 500 LINE",
"400 500 LINE",
"400 400 LINE",
"300 400 LINE",
"300 800 LINE",
"100 800 LINE",
"100 100 LINE",
"300 100 LINE",
"300 200 LINE",
"400 200 LINE",
"400 300 LINE",
"500 300 LINE",
"500 200 LINE",
"600 200 LINE",
"600 100 LINE",
"800 100 LINE",
"800 800 LINE"
);
}
);
width = 800;
}
);
unicode = 0057;
},
{
glyphname = X;
lastChange = "2018-06-13 20:43:11 +0000";
layers = (
{
layerId = "B559EE20-1059-4689-9947-DD10A3112B42";
paths = (
{
closed = 1;
nodes = (
"500 800 LINE",
"500 600 LINE",
"300 600 LINE",
"300 800 LINE",
"100 800 LINE",
"100 600 LINE",
"200 600 LINE",
"200 500 LINE",
"300 500 LINE",
"300 400 LINE",
"200 400 LINE",
"200 300 LINE",
"100 300 LINE",
"100 100 LINE",
"300 100 LINE",
"300 300 LINE",
"500 300 LINE",
"500 100 LINE",
"700 100 LINE",
"700 300 LINE",
"600 300 LINE",
"600 400 LINE",
"500 400 LINE",
"500 500 LINE",
"600 500 LINE",
"600 600 LINE",
"700 600 LINE",
"700 800 LINE"
);
}
);
width = 800;
}
);
unicode = 0058;
},
{
glyphname = Y;
lastChange = "2018-06-13 20:43:24 +0000";
layers = (
{
layerId = "B559EE20-1059-4689-9947-DD10A3112B42";
paths = (
{
closed = 1;
nodes = (
"500 100 LINE",
"500 400 LINE",
"600 400 LINE",
"600 500 LINE",
"700 500 LINE",
"700 800 LINE",
"500 800 LINE",
"500 500 LINE",
"300 500 LINE",
"300 800 LINE",
"100 800 LINE",
"100 500 LINE",
"200 500 LINE",
"200 400 LINE",
"300 400 LINE",
"300 100 LINE"
);
}
);
width = 800;
}
);
unicode = 0059;
},
{
glyphname = Z;
lastChange = "2018-06-13 20:43:38 +0000";
layers = (
{
layerId = "B559EE20-1059-4689-9947-DD10A3112B42";
paths = (
{
closed = 1;
nodes = (
"700 100 LINE",
"700 200 LINE",
"300 200 LINE",
"300 300 LINE",
"400 300 LINE",
"400 400 LINE",
"500 400 LINE",
"500 500 LINE",
"600 500 LINE",
"600 600 LINE",
"700 600 LINE",
"700 800 LINE",
"100 800 LINE",
"100 700 LINE",
"500 700 LINE",
"500 600 LINE",
"400 600 LINE",
"400 500 LINE",
"300 500 LINE",
"300 400 LINE",
"200 400 LINE",
"200 300 LINE",
"100 300 LINE",
"100 100 LINE"
);
}
);
width = 800;
}
);
unicode = 005A;
},
{
glyphname = a;
lastChange = "2018-06-13 20:44:20 +0000";
layers = (
{
layerId = "B559EE20-1059-4689-9947-DD10A3112B42";
paths = (
{
closed = 1;
nodes = (
"700 100 LINE",
"700 500 LINE",
"600 500 LINE",
"600 600 LINE",
"200 600 LINE",
"200 500 LINE",
"500 500 LINE",
"500 400 LINE",
"200 400 LINE",
"200 300 LINE",
"100 300 LINE",
"100 200 LINE",
"200 200 LINE",
"200 100 LINE"
);
},
{
closed = 1;
nodes = (
"300 300 LINE",
"500 300 LINE",
"500 200 LINE",
"300 200 LINE"
);
}
);
width = 800;
}
);
unicode = 0061;
},
{
glyphname = b;
lastChange = "2018-06-13 20:45:13 +0000";
layers = (
{
layerId = "B559EE20-1059-4689-9947-DD10A3112B42";
paths = (
{
closed = 1;
nodes = (
"300 400 LINE",
"500 400 LINE",
"500 200 LINE",
"300 200 LINE"
);
},
{
closed = 1;
nodes = (
"600 100 LINE",
"600 200 LINE",
"700 200 LINE",
"700 400 LINE",
"600 400 LINE",
"600 500 LINE",
"300 500 LINE",
"300 700 LINE",
"100 700 LINE",
"100 100 LINE"
);
}
);
width = 800;
}
);
unicode = 0062;
},
{
glyphname = c;
lastChange = "2018-06-13 20:45:42 +0000";
layers = (
{
layerId = "B559EE20-1059-4689-9947-DD10A3112B42";
paths = (
{
closed = 1;
nodes = (
"600 100 LINE",
"600 200 LINE",
"300 200 LINE",
"300 500 LINE",
"600 500 LINE",
"600 600 LINE",
"200 600 LINE",
"200 500 LINE",
"100 500 LINE",
"100 200 LINE",
"200 200 LINE",
"200 100 LINE"
);
}
);
width = 800;
}
);
unicode = 0063;
},
{
glyphname = e;
lastChange = "2018-06-13 20:46:53 +0000";
layers = (
{
layerId = "B559EE20-1059-4689-9947-DD10A3112B42";
paths = (
{
closed = 1;
nodes = (
"500 400 LINE",
"300 400 LINE",
"300 500 LINE",
"500 500 LINE"
);
},
{
closed = 1;
nodes = (
"200 600 LINE",
"200 500 LINE",
"100 500 LINE",
"100 200 LINE",
"200 200 LINE",
"200 100 LINE",
"600 100 LINE",
"600 200 LINE",
"300 200 LINE",
"300 300 LINE",
"700 300 LINE",
"700 500 LINE",
"600 500 LINE",
"600 600 LINE"
);
}
);
width = 800;
}
);
unicode = 0065;
},
{
glyphname = f;
lastChange = "2018-06-13 20:47:03 +0000";
layers = (
{
layerId = "B559EE20-1059-4689-9947-DD10A3112B42";
paths = (
{
closed = 1;
nodes = (
"400 100 LINE",
"400 400 LINE",
"600 400 LINE",
"600 500 LINE",
"400 500 LINE",
"400 600 LINE",
"600 600 LINE",
"600 700 LINE",
"300 700 LINE",
"300 600 LINE",
"200 600 LINE",
"200 500 LINE",
"100 500 LINE",
"100 400 LINE",
"200 400 LINE",
"200 100 LINE"
);
}
);
width = 800;
}
);
unicode = 0066;
},
{
glyphname = g;
lastChange = "2018-06-13 20:47:30 +0000";
layers = (
{
layerId = "B559EE20-1059-4689-9947-DD10A3112B42";
paths = (
{
closed = 1;
nodes = (
"600 0 LINE",
"600 100 LINE",
"700 100 LINE",
"700 600 LINE",
"200 600 LINE",
"200 500 LINE",
"100 500 LINE",
"100 300 LINE",
"200 300 LINE",
"200 200 LINE",
"500 200 LINE",
"500 100 LINE",
"100 100 LINE",
"100 0 LINE"
);
},
{
closed = 1;
nodes = (
"300 500 LINE",
"500 500 LINE",
"500 300 LINE",
"300 300 LINE"
);
}
);
width = 800;
}
);
unicode = 0067;
},
{
glyphname = h;
lastChange = "2018-06-13 20:47:46 +0000";
layers = (
{
layerId = "B559EE20-1059-4689-9947-DD10A3112B42";
paths = (
{
closed = 1;
nodes = (
"300 100 LINE",
"300 400 LINE",
"500 400 LINE",
"500 100 LINE",
"700 100 LINE",
"700 400 LINE",
"600 400 LINE",
"600 500 LINE",
"300 500 LINE",
"300 700 LINE",
"100 700 LINE",
"100 100 LINE"
);
}
);
width = 800;
}
);
unicode = 0068;
},
{
glyphname = i;
lastChange = "2018-06-13 20:48:12 +0000";
layers = (
{
layerId = "B559EE20-1059-4689-9947-DD10A3112B42";
paths = (
{
closed = 1;
nodes = (
"600 100 LINE",
"600 200 LINE",
"500 200 LINE",
"500 600 LINE",
"200 600 LINE",
"200 500 LINE",
"300 500 LINE",
"300 200 LINE",
"200 200 LINE",
"200 100 LINE"
);
},
{
closed = 1;
nodes = (
"500 700 LINE",
"500 800 LINE",
"300 800 LINE",
"300 700 LINE"
);
}
);
width = 800;
}
);
unicode = 0069;
},
{
glyphname = j;
lastChange = "2018-06-13 20:48:31 +0000";
layers = (
{
layerId = "B559EE20-1059-4689-9947-DD10A3112B42";
paths = (
{
closed = 1;
nodes = (
"700 600 LINE",
"700 700 LINE",
"500 700 LINE",
"500 600 LINE"
);
},
{
closed = 1;
nodes = (
"600 0 LINE",
"600 100 LINE",
"700 100 LINE",
"700 500 LINE",
"500 500 LINE",
"500 100 LINE",
"200 100 LINE",
"200 0 LINE"
);
}
);
width = 800;
}
);
unicode = 006A;
},
{
glyphname = k;
lastChange = "2018-06-13 20:49:24 +0000";
layers = (
{
layerId = "B559EE20-1059-4689-9947-DD10A3112B42";
paths = (
{
closed = 1;
nodes = (
"300 100 LINE",
"300 300 LINE",
"400 300 LINE",
"400 200 LINE",
"500 200 LINE",
"500 100 LINE",
"700 100 LINE",
"700 200 LINE",
"600 200 LINE",
"600 300 LINE",
"500 300 LINE",
"500 400 LINE",
"600 400 LINE",
"600 500 LINE",
"400 500 LINE",
"400 400 LINE",
"300 400 LINE",
"300 700 LINE",
"100 700 LINE",
"100 100 LINE"
);
}
);
width = 800;
}
);
unicode = 006B;
},
{
glyphname = l;
lastChange = "2018-06-13 20:49:48 +0000";
layers = (
{
layerId = "B559EE20-1059-4689-9947-DD10A3112B42";
paths = (
{
closed = 1;
nodes = (
"200 700 LINE",
"200 600 LINE",
"300 600 LINE",
"300 200 LINE",
"200 200 LINE",
"200 100 LINE",
"600 100 LINE",
"600 200 LINE",
"500 200 LINE",
"500 700 LINE"
);
}
);
width = 800;
}
);
unicode = 006C;
},
{
glyphname = m;
lastChange = "2018-06-13 20:49:57 +0000";
layers = (
{
layerId = "B559EE20-1059-4689-9947-DD10A3112B42";
paths = (
{
closed = 1;
nodes = (
"300 100 LINE",
"300 300 LINE",
"400 300 LINE",
"400 200 LINE",
"500 200 LINE",
"500 300 LINE",
"600 300 LINE",
"600 100 LINE",
"800 100 LINE",
"800 500 LINE",
"700 500 LINE",
"700 600 LINE",
"500 600 LINE",
"500 500 LINE",
"300 500 LINE",
"300 600 LINE",
"100 600 LINE",
"100 100 LINE"
);
}
);
width = 800;
}
);
unicode = 006D;
},
{
glyphname = n;
lastChange = "2018-06-13 20:50:10 +0000";
layers = (
{
layerId = "B559EE20-1059-4689-9947-DD10A3112B42";
paths = (
{
closed = 1;
nodes = (
"300 100 LINE",
"300 500 LINE",
"500 500 LINE",
"500 100 LINE",
"700 100 LINE",
"700 500 LINE",
"600 500 LINE",
"600 600 LINE",
"100 600 LINE",
"100 100 LINE"
);
}
);
width = 800;
}
);
unicode = 006E;
},
{
glyphname = o;
lastChange = "2018-06-13 20:50:20 +0000";
layers = (
{
layerId = "B559EE20-1059-4689-9947-DD10A3112B42";
paths = (
{
closed = 1;
nodes = (
"600 100 LINE",
"600 200 LINE",
"700 200 LINE",
"700 500 LINE",
"600 500 LINE",
"600 600 LINE",
"200 600 LINE",
"200 500 LINE",
"100 500 LINE",
"100 200 LINE",
"200 200 LINE",
"200 100 LINE"
);
},
{
closed = 1;
nodes = (
"300 500 LINE",
"500 500 LINE",
"500 200 LINE",
"300 200 LINE"
);
}
);
width = 800;
}
);
unicode = 006F;
},
{
glyphname = p;
lastChange = "2018-06-13 20:50:29 +0000";
layers = (
{
layerId = "B559EE20-1059-4689-9947-DD10A3112B42";
paths = (
{
closed = 1;
nodes = (
"300 0 LINE",
"300 200 LINE",
"600 200 LINE",
"600 300 LINE",
"700 300 LINE",
"700 500 LINE",
"600 500 LINE",
"600 600 LINE",
"100 600 LINE",
"100 0 LINE"
);
},
{
closed = 1;
nodes = (
"300 500 LINE",
"500 500 LINE",
"500 300 LINE",
"300 300 LINE"
);
}
);
width = 800;
}
);
unicode = 0070;
},
{
glyphname = r;
lastChange = "2018-06-13 20:51:22 +0000";
layers = (
{
layerId = "B559EE20-1059-4689-9947-DD10A3112B42";
paths = (
{
closed = 1;
nodes = (
"300 100 LINE",
"300 500 LINE",
"500 500 LINE",
"500 400 LINE",
"700 400 LINE",
"700 500 LINE",
"600 500 LINE",
"600 600 LINE",
"100 600 LINE",
"100 100 LINE"
);
}
);
width = 800;
}
);
unicode = 0072;
},
{
glyphname = s;
lastChange = "2018-06-13 20:51:28 +0000";
layers = (
{
layerId = "B559EE20-1059-4689-9947-DD10A3112B42";
paths = (
{
closed = 1;
nodes = (
"200 600 LINE",
"200 500 LINE",
"100 500 LINE",
"100 400 LINE",
"200 400 LINE",
"200 300 LINE",
"500 300 LINE",
"500 200 LINE",
"100 200 LINE",
"100 100 LINE",
"600 100 LINE",
"600 200 LINE",
"700 200 LINE",
"700 300 LINE",
"600 300 LINE",
"600 400 LINE",
"300 400 LINE",
"300 500 LINE",
"700 500 LINE",
"700 600 LINE"
);
}
);
width = 800;
}
);
unicode = 0073;
},
{
glyphname = t;
lastChange = "2018-06-13 20:51:38 +0000";
layers = (
{
layerId = "B559EE20-1059-4689-9947-DD10A3112B42";
paths = (
{
closed = 1;
nodes = (
"300 700 LINE",
"300 600 LINE",
"100 600 LINE",
"100 500 LINE",
"300 500 LINE",
"300 200 LINE",
"400 200 LINE",
"400 100 LINE",
"700 100 LINE",
"700 200 LINE",
"500 200 LINE",
"500 500 LINE",
"700 500 LINE",
"700 600 LINE",
"500 600 LINE",
"500 700 LINE"
);
}
);
width = 800;
}
);
unicode = 0074;
},
{
glyphname = u;
lastChange = "2018-06-13 20:52:12 +0000";
layers = (
{
layerId = "B559EE20-1059-4689-9947-DD10A3112B42";
paths = (
{
closed = 1;
nodes = (
"500 600 LINE",
"500 200 LINE",
"300 200 LINE",
"300 600 LINE",
"100 600 LINE",
"100 200 LINE",
"200 200 LINE",
"200 100 LINE",
"700 100 LINE",
"700 600 LINE"
);
}
);
width = 800;
}
);
unicode = 0075;
},
{
glyphname = v;
lastChange = "2018-06-13 20:52:25 +0000";
layers = (
{
layerId = "B559EE20-1059-4689-9947-DD10A3112B42";
paths = (
{
closed = 1;
nodes = (
"500 100 LINE",
"500 200 LINE",
"600 200 LINE",
"600 300 LINE",
"700 300 LINE",
"700 600 LINE",
"500 600 LINE",
"500 300 LINE",
"300 300 LINE",
"300 600 LINE",
"100 600 LINE",
"100 300 LINE",
"200 300 LINE",
"200 200 LINE",
"300 200 LINE",
"300 100 LINE"
);
}
);
width = 800;
}
);
unicode = 0076;
},
{
glyphname = w;
lastChange = "2018-06-13 20:52:35 +0000";
layers = (
{
layerId = "B559EE20-1059-4689-9947-DD10A3112B42";
paths = (
{
closed = 1;
nodes = (
"400 100 LINE",
"400 200 LINE",
"500 200 LINE",
"500 100 LINE",
"700 100 LINE",
"700 300 LINE",
"800 300 LINE",
"800 600 LINE",
"600 600 LINE",
"600 400 LINE",
"500 400 LINE",
"500 500 LINE",
"400 500 LINE",
"400 400 LINE",
"300 400 LINE",
"300 600 LINE",
"100 600 LINE",
"100 300 LINE",
"200 300 LINE",
"200 100 LINE"
);
}
);
width = 800;
}
);
unicode = 0077;
},
{
glyphname = x;
lastChange = "2018-06-13 20:52:45 +0000";
layers = (
{
layerId = "B559EE20-1059-4689-9947-DD10A3112B42";
paths = (
{
closed = 1;
nodes = (
"300 100 LINE",
"300 200 LINE",
"500 200 LINE",
"500 100 LINE",
"700 100 LINE",
"700 200 LINE",
"600 200 LINE",
"600 300 LINE",
"500 300 LINE",
"500 400 LINE",
"600 400 LINE",
"600 500 LINE",
"700 500 LINE",
"700 600 LINE",
"500 600 LINE",
"500 500 LINE",
"300 500 LINE",
"300 600 LINE",
"100 600 LINE",
"100 500 LINE",
"200 500 LINE",
"200 400 LINE",
"300 400 LINE",
"300 300 LINE",
"200 300 LINE",
"200 200 LINE",
"100 200 LINE",
"100 100 LINE"
);
}
);
width = 800;
}
);
unicode = 0078;
},
{
glyphname = y;
lastChange = "2018-06-13 20:53:02 +0000";
layers = (
{
layerId = "B559EE20-1059-4689-9947-DD10A3112B42";
paths = (
{
closed = 1;
nodes = (
"500 600 LINE",
"500 300 LINE",
"300 300 LINE",
"300 600 LINE",
"100 600 LINE",
"100 300 LINE",
"200 300 LINE",
"200 200 LINE",
"400 200 LINE",
"400 100 LINE",
"100 100 LINE",
"100 0 LINE",
"500 0 LINE",
"500 100 LINE",
"600 100 LINE",
"600 200 LINE",
"700 200 LINE",
"700 600 LINE"
);
}
);
width = 800;
}
);
unicode = 0079;
},
{
glyphname = z;
lastChange = "2018-06-13 20:53:13 +0000";
layers = (
{
layerId = "B559EE20-1059-4689-9947-DD10A3112B42";
paths = (
{
closed = 1;
nodes = (
"700 100 LINE",
"700 200 LINE",
"400 200 LINE",
"400 300 LINE",
"500 300 LINE",
"500 400 LINE",
"600 400 LINE",
"600 500 LINE",
"700 500 LINE",
"700 600 LINE",
"100 600 LINE",
"100 500 LINE",
"400 500 LINE",
"400 400 LINE",
"300 400 LINE",
"300 300 LINE",
"200 300 LINE",
"200 200 LINE",
"100 200 LINE",
"100 100 LINE"
);
}
);
width = 800;
}
);
unicode = 007A;
},
{
glyphname = pi;
lastChange = "2018-06-13 21:24:43 +0000";
layers = (
{
layerId = "B559EE20-1059-4689-9947-DD10A3112B42";
paths = (
{
closed = 1;
nodes = (
"400 100 LINE",
"400 400 LINE",
"500 400 LINE",
"500 100 LINE",
"700 100 LINE",
"700 500 LINE",
"800 500 LINE",
"800 600 LINE",
"600 600 LINE",
"600 500 LINE",
"200 500 LINE",
"200 400 LINE",
"100 400 LINE",
"100 300 LINE",
"200 300 LINE",
"200 100 LINE"
);
}
);
width = 800;
}
);
note = pi;
unicode = "03C0,E07E,E0DE,E0FF,EE5E";
},
{
glyphname = zero;
lastChange = "2018-06-13 20:54:06 +0000";
layers = (
{
layerId = "B559EE20-1059-4689-9947-DD10A3112B42";
paths = (
{
closed = 1;
nodes = (
"600 100 LINE",
"600 200 LINE",
"700 200 LINE",
"700 700 LINE",
"600 700 LINE",
"600 800 LINE",
"200 800 LINE",
"200 700 LINE",
"100 700 LINE",
"100 200 LINE",
"200 200 LINE",
"200 100 LINE"
);
},
{
closed = 1;
nodes = (
"300 400 LINE",
"400 400 LINE",
"400 500 LINE",
"300 500 LINE",
"300 700 LINE",
"500 700 LINE",
"500 600 LINE",
"400 600 LINE",
"400 500 LINE",
"500 500 LINE",
"500 200 LINE",
"300 200 LINE"
);
}
);
width = 800;
}
);
unicode = 0030;
},
{
glyphname = one;
lastChange = "2018-06-13 20:54:16 +0000";
layers = (
{
layerId = "B559EE20-1059-4689-9947-DD10A3112B42";
paths = (
{
closed = 1;
nodes = (
"700 100 LINE",
"700 200 LINE",
"500 200 LINE",
"500 800 LINE",
"300 800 LINE",
"300 600 LINE",
"200 600 LINE",
"200 500 LINE",
"300 500 LINE",
"300 200 LINE",
"100 200 LINE",
"100 100 LINE"
);
}
);
width = 800;
}
);
unicode = 0031;
},
{
glyphname = two;
lastChange = "2018-06-13 20:54:26 +0000";
layers = (
{
layerId = "B559EE20-1059-4689-9947-DD10A3112B42";
paths = (
{
closed = 1;
nodes = (
"700 100 LINE",
"700 200 LINE",
"300 200 LINE",
"300 300 LINE",
"400 300 LINE",
"400 400 LINE",
"600 400 LINE",
"600 500 LINE",
"700 500 LINE",
"700 700 LINE",
"600 700 LINE",
"600 800 LINE",
"200 800 LINE",
"200 700 LINE",
"100 700 LINE",
"100 600 LINE",
"300 600 LINE",
"300 700 LINE",
"500 700 LINE",
"500 500 LINE",
"400 500 LINE",
"400 400 LINE",
"200 400 LINE",
"200 300 LINE",
"100 300 LINE",
"100 100 LINE"
);
}
);
width = 800;
}
);
unicode = 0032;
},
{
glyphname = three;
lastChange = "2018-06-13 20:54:41 +0000";
layers = (
{
layerId = "B559EE20-1059-4689-9947-DD10A3112B42";
paths = (
{
closed = 1;
nodes = (
"600 100 LINE",
"600 200 LINE",
"700 200 LINE",
"700 400 LINE",
"600 400 LINE",
"600 500 LINE",
"700 500 LINE",
"700 700 LINE",
"600 700 LINE",
"600 800 LINE",
"200 800 LINE",
"200 700 LINE",
"100 700 LINE",
"100 600 LINE",
"300 600 LINE",
"300 700 LINE",
"500 700 LINE",
"500 500 LINE",
"300 500 LINE",
"300 400 LINE",
"500 400 LINE",
"500 200 LINE",
"300 200 LINE",
"300 300 LINE",
"100 300 LINE",
"100 200 LINE",
"200 200 LINE",
"200 100 LINE"
);
}
);
width = 800;
}
);
unicode = 0033;
},
{
glyphname = four;
lastChange = "2018-06-13 20:54:56 +0000";
layers = (
{
layerId = "B559EE20-1059-4689-9947-DD10A3112B42";
paths = (
{
closed = 1;
nodes = (
"700 100 LINE",
"700 300 LINE",
"800 300 LINE",
"800 400 LINE",
"700 400 LINE",
"700 800 LINE",
"500 800 LINE",
"500 700 LINE",
"400 700 LINE",
"400 600 LINE",
"300 600 LINE",
"300 500 LINE",
"500 500 LINE",
"500 400 LINE",
"300 400 LINE",
"300 500 LINE",
"100 500 LINE",
"100 300 LINE",
"500 300 LINE",
"500 100 LINE"
);
}
);
width = 800;
}
);
unicode = 0034;
},
{
glyphname = five;
lastChange = "2018-06-13 20:55:09 +0000";
layers = (
{
layerId = "B559EE20-1059-4689-9947-DD10A3112B42";
paths = (
{
closed = 1;
nodes = (
"600 100 LINE",
"600 200 LINE",
"700 200 LINE",
"700 500 LINE",
"600 500 LINE",
"600 600 LINE",
"300 600 LINE",
"300 700 LINE",
"700 700 LINE",
"700 800 LINE",
"100 800 LINE",
"100 500 LINE",
"500 500 LINE",
"500 200 LINE",
"300 200 LINE",
"300 300 LINE",
"100 300 LINE",
"100 200 LINE",
"200 200 LINE",
"200 100 LINE"
);
}
);
width = 800;
}
);
unicode = 0035;
},
{
glyphname = six;
lastChange = "2018-06-13 20:55:21 +0000";
layers = (
{
layerId = "B559EE20-1059-4689-9947-DD10A3112B42";
paths = (
{
closed = 1;
nodes = (
"300 400 LINE",
"500 400 LINE",
"500 200 LINE",
"300 200 LINE"
);
},
{
closed = 1;
nodes = (
"600 100 LINE",
"600 200 LINE",
"700 200 LINE",
"700 400 LINE",
"600 400 LINE",
"600 500 LINE",
"300 500 LINE",
"300 700 LINE",
"500 700 LINE",
"500 600 LINE",
"700 600 LINE",
"700 700 LINE",
"600 700 LINE",
"600 800 LINE",
"200 800 LINE",
"200 700 LINE",
"100 700 LINE",
"100 200 LINE",
"200 200 LINE",
"200 100 LINE"
);
}
);
width = 800;
}
);
unicode = 0036;
},
{
glyphname = seven;
lastChange = "2018-06-13 20:55:38 +0000";
layers = (
{
layerId = "B559EE20-1059-4689-9947-DD10A3112B42";
paths = (
{
closed = 1;
nodes = (
"500 100 LINE",
"500 500 LINE",
"600 500 LINE",
"600 600 LINE",
"700 600 LINE",
"700 800 LINE",
"100 800 LINE",
"100 600 LINE",
"300 600 LINE",
"300 700 LINE",
"500 700 LINE",
"500 600 LINE",
"400 600 LINE",
"400 500 LINE",
"300 500 LINE",
"300 100 LINE"
);
}
);
width = 800;
}
);
unicode = 0037;
},
{
glyphname = eight;
lastChange = "2018-06-13 20:55:47 +0000";
layers = (
{
layerId = "B559EE20-1059-4689-9947-DD10A3112B42";
paths = (
{
closed = 1;
nodes = (
"600 100 LINE",
"600 200 LINE",
"700 200 LINE",
"700 400 LINE",
"600 400 LINE",
"600 500 LINE",
"700 500 LINE",
"700 700 LINE",
"600 700 LINE",
"600 800 LINE",
"200 800 LINE",
"200 700 LINE",
"100 700 LINE",
"100 500 LINE",
"200 500 LINE",
"200 400 LINE",
"100 400 LINE",
"100 200 LINE",
"200 200 LINE",
"200 100 LINE"
);
},
{
closed = 1;
nodes = (
"300 700 LINE",
"500 700 LINE",
"500 500 LINE",
"300 500 LINE"
);
},
{
closed = 1;
nodes = (
"300 400 LINE",
"500 400 LINE",
"500 200 LINE",
"300 200 LINE"
);
}
);
width = 800;
}
);
unicode = 0038;
},
{
glyphname = nine;
lastChange = "2018-06-13 20:55:55 +0000";
layers = (
{
layerId = "B559EE20-1059-4689-9947-DD10A3112B42";
paths = (
{
closed = 1;
nodes = (
"600 100 LINE",
"600 200 LINE",
"700 200 LINE",
"700 700 LINE",
"600 700 LINE",
"600 800 LINE",
"200 800 LINE",
"200 700 LINE",
"100 700 LINE",
"100 500 LINE",
"200 500 LINE",
"200 400 LINE",
"500 400 LINE",
"500 200 LINE",
"300 200 LINE",
"300 300 LINE",
"100 300 LINE",
"100 200 LINE",
"200 200 LINE",
"200 100 LINE"
);
},
{
closed = 1;
nodes = (
"300 700 LINE",
"500 700 LINE",
"500 500 LINE",
"300 500 LINE"
);
}
);
width = 800;
}
);
unicode = 0039;
},
{
glyphname = period;
lastChange = "2018-06-13 20:56:27 +0000";
layers = (
{
layerId = "B559EE20-1059-4689-9947-DD10A3112B42";
paths = (
{
closed = 1;
nodes = (
"500 100 LINE",
"500 300 LINE",
"300 300 LINE",
"300 100 LINE"
);
}
);
width = 800;
}
);
unicode = 002E;
},
{
glyphname = comma;
lastChange = "2018-06-13 20:56:40 +0000";
layers = (
{
layerId = "B559EE20-1059-4689-9947-DD10A3112B42";
paths = (
{
closed = 1;
nodes = (
"400 0 LINE",
"400 100 LINE",
"500 100 LINE",
"500 300 LINE",
"300 300 LINE",
"300 100 LINE",
"200 100 LINE",
"200 0 LINE"
);
}
);
width = 800;
}
);
unicode = 002C;
},
{
glyphname = colon;
lastChange = "2018-06-13 21:00:33 +0000";
layers = (
{
layerId = "B559EE20-1059-4689-9947-DD10A3112B42";
paths = (
{
closed = 1;
nodes = (
"500 200 LINE",
"500 300 LINE",
"300 300 LINE",
"300 200 LINE"
);
},
{
closed = 1;
nodes = (
"500 500 LINE",
"500 600 LINE",
"300 600 LINE",
"300 500 LINE"
);
}
);
width = 800;
}
);
note = colon;
unicode = "003A,E03A,E13A,EE3A,EF3A";
},
{
glyphname = semicolon;
lastChange = "2018-06-13 21:03:07 +0000";
layers = (
{
layerId = "B559EE20-1059-4689-9947-DD10A3112B42";
paths = (
{
closed = 1;
nodes = (
"400 0 LINE",
"400 100 LINE",
"500 100 LINE",
"500 300 LINE",
"300 300 LINE",
"300 100 LINE",
"200 100 LINE",
"200 0 LINE"
);
},
{
closed = 1;
nodes = (
"500 500 LINE",
"500 600 LINE",
"300 600 LINE",
"300 500 LINE"
);
}
);
width = 800;
}
);
note = semicolon;
unicode = "003B,E03B,E13B,EE3B,EF3B";
},
{
glyphname = exclam;
lastChange = "2018-06-13 21:03:49 +0000";
layers = (
{
layerId = "B559EE20-1059-4689-9947-DD10A3112B42";
paths = (
{
closed = 1;
nodes = (
"500 400 LINE",
"500 800 LINE",
"300 800 LINE",
"300 400 LINE"
);
},
{
closed = 1;
nodes = (
"500 100 LINE",
"500 200 LINE",
"300 200 LINE",
"300 100 LINE"
);
}
);
width = 800;
}
);
note = exclam;
unicode = "0021,E021,E121,EE21,EF21";
},
{
glyphname = question;
lastChange = "2018-06-13 21:06:04 +0000";
layers = (
{
layerId = "B559EE20-1059-4689-9947-DD10A3112B42";
paths = (
{
closed = 1;
nodes = (
"500 300 LINE",
"500 400 LINE",
"600 400 LINE",
"600 500 LINE",
"700 500 LINE",
"700 700 LINE",
"600 700 LINE",
"600 800 LINE",
"200 800 LINE",
"200 700 LINE",
"100 700 LINE",
"100 600 LINE",
"300 600 LINE",
"300 700 LINE",
"500 700 LINE",
"500 500 LINE",
"400 500 LINE",
"400 400 LINE",
"300 400 LINE",
"300 300 LINE"
);
},
{
closed = 1;
nodes = (
"500 100 LINE",
"500 200 LINE",
"300 200 LINE",
"300 100 LINE"
);
}
);
width = 800;
}
);
note = question;
unicode = "003F,E03F,E13F,EE3F,EF3F";
},
{
glyphname = periodcentered;
lastChange = "2018-06-13 21:16:32 +0000";
layers = (
{
layerId = "B559EE20-1059-4689-9947-DD10A3112B42";
paths = (
{
closed = 1;
nodes = (
"600 100 LINE",
"600 200 LINE",
"700 200 LINE",
"700 600 LINE",
"600 600 LINE",
"600 700 LINE",
"200 700 LINE",
"200 600 LINE",
"100 600 LINE",
"100 200 LINE",
"200 200 LINE",
"200 100 LINE"
);
}
);
width = 800;
}
);
note = periodcentered;
unicode = "00B7,2022,2219,25CF,E071,E0D1,EE51";
},
{
glyphname = asterisk;
lastChange = "2018-06-13 20:59:12 +0000";
layers = (
{
layerId = "B559EE20-1059-4689-9947-DD10A3112B42";
paths = (
{
closed = 1;
nodes = (
"300 200 LINE",
"300 300 LINE",
"500 300 LINE",
"500 200 LINE",
"700 200 LINE",
"700 300 LINE",
"600 300 LINE",
"600 400 LINE",
"800 400 LINE",
"800 500 LINE",
"600 500 LINE",
"600 600 LINE",
"700 600 LINE",
"700 700 LINE",
"500 700 LINE",
"500 600 LINE",
"300 600 LINE",
"300 700 LINE",
"100 700 LINE",
"100 600 LINE",
"200 600 LINE",
"200 500 LINE",
"0 500 LINE",
"0 400 LINE",
"200 400 LINE",
"200 300 LINE",
"100 300 LINE",
"100 200 LINE"
);
}
);
width = 800;
}
);
note = asterisk;
unicode = "002A,E02A,E12A,EE2A,EF2A";
},
{
glyphname = numbersign;
lastChange = "2018-06-13 21:06:17 +0000";
layers = (
{
layerId = "B559EE20-1059-4689-9947-DD10A3112B42";
paths = (
{
closed = 1;
nodes = (
"300 100 LINE",
"300 300 LINE",
"500 300 LINE",
"500 100 LINE",
"700 100 LINE",
"700 300 LINE",
"800 300 LINE",
"800 400 LINE",
"700 400 LINE",
"700 500 LINE",
"800 500 LINE",
"800 600 LINE",
"700 600 LINE",
"700 800 LINE",
"500 800 LINE",
"500 600 LINE",
"300 600 LINE",
"300 800 LINE",
"100 800 LINE",
"100 600 LINE",
"0 600 LINE",
"0 500 LINE",
"100 500 LINE",
"100 400 LINE",
"0 400 LINE",
"0 300 LINE",
"100 300 LINE",
"100 100 LINE"
);
},
{
closed = 1;
nodes = (
"300 500 LINE",
"500 500 LINE",
"500 400 LINE",
"300 400 LINE"
);
}
);
width = 800;
}
);
note = numbersign;
unicode = "0023,E023,E123,EE23,EF23";
},
{
glyphname = slash;
lastChange = "2018-06-13 20:58:30 +0000";
layers = (
{
layerId = "B559EE20-1059-4689-9947-DD10A3112B42";
paths = (
{
closed = 1;
nodes = (
"300 100 LINE",
"300 200 LINE",
"400 200 LINE",
"400 300 LINE",
"500 300 LINE",
"500 400 LINE",
"600 400 LINE",
"600 500 LINE",
"700 500 LINE",
"700 600 LINE",
"800 600 LINE",
"800 700 LINE",
"600 700 LINE",
"600 600 LINE",
"500 600 LINE",
"500 500 LINE",
"400 500 LINE",
"400 400 LINE",
"300 400 LINE",
"300 300 LINE",
"200 300 LINE",
"200 200 LINE",
"100 200 LINE",
"100 100 LINE"
);
}
);
width = 800;
}
);
note = slash;
unicode = "002F,E02F,E12F,EE2F,EF2F";
},
{
glyphname = parenleft;
lastChange = "2018-06-13 21:06:40 +0000";
layers = (
{
layerId = "B559EE20-1059-4689-9947-DD10A3112B42";
paths = (
{
closed = 1;
nodes = (
"600 100 LINE",
"600 200 LINE",
"500 200 LINE",
"500 300 LINE",
"400 300 LINE",
"400 600 LINE",
"500 600 LINE",
"500 700 LINE",
"600 700 LINE",
"600 800 LINE",
"400 800 LINE",
"400 700 LINE",
"300 700 LINE",
"300 600 LINE",
"200 600 LINE",
"200 300 LINE",
"300 300 LINE",
"300 200 LINE",
"400 200 LINE",
"400 100 LINE"
);
}
);
width = 800;
}
);
note = parenleft;
unicode = "0028,E028,E128,EE28,EF28";
},
{
glyphname = braceleft;
lastChange = "2018-06-13 21:23:00 +0000";
layers = (
{
layerId = "B559EE20-1059-4689-9947-DD10A3112B42";
paths = (
{
closed = 1;
nodes = (
"600 100 LINE",
"600 200 LINE",
"500 200 LINE",
"500 400 LINE",
"400 400 LINE",
"400 500 LINE",
"500 500 LINE",
"500 700 LINE",
"600 700 LINE",
"600 800 LINE",
"400 800 LINE",
"400 700 LINE",
"300 700 LINE",
"300 500 LINE",
"200 500 LINE",
"200 400 LINE",
"300 400 LINE",
"300 200 LINE",
"400 200 LINE",
"400 100 LINE"
);
}
);
width = 800;
}
);
note = braceleft;
unicode = 007B;
},
{
glyphname = bracketleft;
lastChange = "2018-06-13 21:07:23 +0000";
layers = (
{
layerId = "B559EE20-1059-4689-9947-DD10A3112B42";
paths = (
{
closed = 1;
nodes = (
"600 100 LINE",
"600 200 LINE",
"400 200 LINE",
"400 700 LINE",
"600 700 LINE",
"600 800 LINE",
"200 800 LINE",
"200 100 LINE"
);
}
);
width = 800;
}
);
note = bracketleft;
unicode = "005B,E05B,E15B,EE1B,EF1B";
},
{
glyphname = hyphen;
lastChange = "2018-06-13 20:57:07 +0000";
layers = (
{
layerId = "B559EE20-1059-4689-9947-DD10A3112B42";
paths = (
{
closed = 1;
nodes = (
"700 400 LINE",
"700 500 LINE",
"100 500 LINE",
"100 400 LINE"
);
}
);
width = 800;
}
);
unicode = 002D;
},
{
glyphname = quotedbl;
lastChange = "2018-06-13 21:07:58 +0000";
layers = (
{
layerId = "B559EE20-1059-4689-9947-DD10A3112B42";
paths = (
{
closed = 1;
nodes = (
"300 500 LINE",
"300 800 LINE",
"100 800 LINE",
"100 500 LINE"
);
},
{
closed = 1;
nodes = (
"700 500 LINE",
"700 800 LINE",
"500 800 LINE",
"500 500 LINE"
);
}
);
width = 800;
}
);
note = quotedbl;
unicode = "0022,0094,0095,201C,201D,E022,E122,EE22,EF22";
},
{
glyphname = quotesingle;
lastChange = "2018-06-13 21:08:22 +0000";
layers = (
{
layerId = "B559EE20-1059-4689-9947-DD10A3112B42";
paths = (
{
closed = 1;
nodes = (
"500 500 LINE",
"500 600 LINE",
"600 600 LINE",
"600 700 LINE",
"700 700 LINE",
"700 800 LINE",
"500 800 LINE",
"500 700 LINE",
"400 700 LINE",
"400 600 LINE",
"300 600 LINE",
"300 500 LINE"
);
}
);
width = 800;
}
);
note = quotesingle;
unicode = "0027,0091,0092,2018,2019,E027,E127,EE27,EF27";
},
{
glyphname = dollar;
lastChange = "2018-06-13 21:09:05 +0000";
layers = (
{
layerId = "B559EE20-1059-4689-9947-DD10A3112B42";
paths = (
{
closed = 1;
nodes = (
"300 200 LINE",
"300 100 LINE",
"500 100 LINE",
"500 200 LINE",
"600 200 LINE",
"600 300 LINE",
"700 300 LINE",
"700 400 LINE",
"600 400 LINE",
"600 500 LINE",
"300 500 LINE",
"300 600 LINE",
"700 600 LINE",
"700 700 LINE",
"500 700 LINE",
"500 800 LINE",
"300 800 LINE",
"300 700 LINE",
"200 700 LINE",
"200 600 LINE",
"100 600 LINE",
"100 500 LINE",
"200 500 LINE",
"200 400 LINE",
"500 400 LINE",
"500 300 LINE",
"100 300 LINE",
"100 200 LINE"
);
}
);
width = 800;
}
);
note = dollar;
unicode = "0024,E024,E124,EE24,EF24";
},
{
glyphname = sterling;
lastChange = "2018-06-13 21:09:17 +0000";
layers = (
{
layerId = "B559EE20-1059-4689-9947-DD10A3112B42";
paths = (
{
closed = 1;
nodes = (
"600 100 LINE",
"600 200 LINE",
"700 200 LINE",
"700 300 LINE",
"600 300 LINE",
"600 200 LINE",
"300 200 LINE",
"300 300 LINE",
"400 300 LINE",
"400 400 LINE",
"600 400 LINE",
"600 500 LINE",
"400 500 LINE",
"400 700 LINE",
"600 700 LINE",
"600 600 LINE",
"700 600 LINE",
"700 700 LINE",
"600 700 LINE",
"600 800 LINE",
"400 800 LINE",
"400 700 LINE",
"300 700 LINE",
"300 600 LINE",
"200 600 LINE",
"200 500 LINE",
"100 500 LINE",
"100 400 LINE",
"200 400 LINE",
"200 300 LINE",
"100 300 LINE",
"100 200 LINE",
"0 200 LINE",
"0 100 LINE"
);
}
);
width = 800;
}
);
note = sterling;
unicode = "00A3,E05C,E15C,EE1C,EF1C";
},
{
glyphname = plus;
lastChange = "2018-06-13 20:57:42 +0000";
layers = (
{
layerId = "B559EE20-1059-4689-9947-DD10A3112B42";
paths = (
{
closed = 1;
nodes = (
"500 200 LINE",
"500 400 LINE",
"700 400 LINE",
"700 500 LINE",
"500 500 LINE",
"500 700 LINE",
"300 700 LINE",
"300 500 LINE",
"100 500 LINE",
"100 400 LINE",
"300 400 LINE",
"300 200 LINE"
);
}
);
width = 800;
}
);
note = plus;
unicode = "002B,E02B,E12B,EE2B,EF2B";
},
{
glyphname = equal;
lastChange = "2018-06-13 21:29:42 +0000";
layers = (
{
layerId = "B559EE20-1059-4689-9947-DD10A3112B42";
paths = (
{
closed = 1;
nodes = (
"700 500 LINE",
"700 600 LINE",
"100 600 LINE",
"100 500 LINE"
);
},
{
closed = 1;
nodes = (
"700 300 LINE",
"700 400 LINE",
"100 400 LINE",
"100 300 LINE"
);
}
);
width = 800;
}
);
note = equal;
unicode = "003D,E03D,E13D,EE3D,EF3D";
},
{
glyphname = greater;
lastChange = "2018-06-13 21:09:56 +0000";
layers = (
{
layerId = "B559EE20-1059-4689-9947-DD10A3112B42";
paths = (
{
closed = 1;
nodes = (
"100 800 LINE",
"100 700 LINE",
"300 700 LINE",
"300 600 LINE",
"400 600 LINE",
"400 500 LINE",
"500 500 LINE",
"500 400 LINE",
"400 400 LINE",
"400 300 LINE",
"300 300 LINE",
"300 200 LINE",
"100 200 LINE",
"100 100 LINE",
"400 100 LINE",
"400 200 LINE",
"500 200 LINE",
"500 300 LINE",
"600 300 LINE",
"600 400 LINE",
"700 400 LINE",
"700 500 LINE",
"600 500 LINE",
"600 600 LINE",
"500 600 LINE",
"500 700 LINE",
"400 700 LINE",
"400 800 LINE"
);
}
);
width = 800;
}
);
note = greater;
unicode = "003E,232A,27E9,3009,E03E,E13E,EE3E,EF3E";
},
{
glyphname = less;
lastChange = "2018-06-13 21:10:15 +0000";
layers = (
{
layerId = "B559EE20-1059-4689-9947-DD10A3112B42";
paths = (
{
closed = 1;
nodes = (
"700 100 LINE",
"700 200 LINE",
"500 200 LINE",
"500 300 LINE",
"400 300 LINE",
"400 400 LINE",
"300 400 LINE",
"300 500 LINE",
"400 500 LINE",
"400 600 LINE",
"500 600 LINE",
"500 700 LINE",
"700 700 LINE",
"700 800 LINE",
"400 800 LINE",
"400 700 LINE",
"300 700 LINE",
"300 600 LINE",
"200 600 LINE",
"200 500 LINE",
"100 500 LINE",
"100 400 LINE",
"200 400 LINE",
"200 300 LINE",
"300 300 LINE",
"300 200 LINE",
"400 200 LINE",
"400 100 LINE"
);
}
);
width = 800;
}
);
note = less;
unicode = "003C,2329,27E8,3008,E03C,E13C,EE3C,EF3C";
},
{
glyphname = asciitilde;
lastChange = "2018-06-13 21:22:28 +0000";
layers = (
{
layerId = "B559EE20-1059-4689-9947-DD10A3112B42";
paths = (
{
closed = 1;
nodes = (
"200 300 LINE",
"200 400 LINE",
"400 400 LINE",
"400 300 LINE",
"700 300 LINE",
"700 400 LINE",
"800 400 LINE",
"800 500 LINE",
"700 500 LINE",
"700 400 LINE",
"500 400 LINE",
"500 500 LINE",
"200 500 LINE",
"200 400 LINE",
"100 400 LINE",
"100 300 LINE"
);
}
);
width = 800;
}
);
note = asciitilde;
unicode = 007E;
},
{
glyphname = asciicircum;
lastChange = "2018-06-13 21:22:38 +0000";
layers = (
{
layerId = "B559EE20-1059-4689-9947-DD10A3112B42";
paths = (
{
closed = 1;
nodes = (
"200 300 LINE",
"200 400 LINE",
"300 400 LINE",
"300 500 LINE",
"400 500 LINE",
"400 600 LINE",
"500 600 LINE",
"500 500 LINE",
"600 500 LINE",
"600 400 LINE",
"700 400 LINE",
"700 300 LINE",
"800 300 LINE",
"800 500 LINE",
"700 500 LINE",
"700 600 LINE",
"600 600 LINE",
"600 700 LINE",
"500 700 LINE",
"500 800 LINE",
"400 800 LINE",
"400 700 LINE",
"300 700 LINE",
"300 600 LINE",
"200 600 LINE",
"200 500 LINE",
"100 500 LINE",
"100 300 LINE"
);
}
);
width = 800;
}
);
note = asciicircum;
unicode = 005E;
},
{
glyphname = percent;
lastChange = "2018-06-13 21:10:27 +0000";
layers = (
{
layerId = "B559EE20-1059-4689-9947-DD10A3112B42";
paths = (
{
closed = 1;
nodes = (
"200 100 LINE",
"200 200 LINE",
"300 200 LINE",
"300 300 LINE",
"400 300 LINE",
"400 400 LINE",
"500 400 LINE",
"500 500 LINE",
"600 500 LINE",
"600 600 LINE",
"700 600 LINE",
"700 800 LINE",
"600 800 LINE",
"600 700 LINE",
"500 700 LINE",
"500 600 LINE",
"400 600 LINE",
"400 500 LINE",
"300 500 LINE",
"300 400 LINE",
"200 400 LINE",
"200 300 LINE",
"100 300 LINE",
"100 100 LINE"
);
},
{
closed = 1;
nodes = (
"300 600 LINE",
"300 800 LINE",
"100 800 LINE",
"100 600 LINE"
);
},
{
closed = 1;
nodes = (
"700 100 LINE",
"700 300 LINE",
"500 300 LINE",
"500 100 LINE"
);
}
);
width = 800;
}
);
note = percent;
unicode = "0025,E025,E125,EE25,EF25";
},
{
glyphname = arrowup;
lastChange = "2018-06-13 21:10:36 +0000";
layers = (
{
layerId = "B559EE20-1059-4689-9947-DD10A3112B42";
paths = (
{
closed = 1;
nodes = (
"500 0 LINE",
"500 400 LINE",
"700 400 LINE",
"700 500 LINE",
"600 500 LINE",
"600 600 LINE",
"500 600 LINE",
"500 700 LINE",
"300 700 LINE",
"300 600 LINE",
"200 600 LINE",
"200 500 LINE",
"100 500 LINE",
"100 400 LINE",
"300 400 LINE",
"300 0 LINE"
);
}
);
width = 800;
}
);
note = arrowup;
unicode = "2191,E05E,E15E,EE1E,EF1E";
},
{
glyphname = leftOneEighthBlock;
lastChange = "2018-06-13 21:38:28 +0000";
layers = (
{
layerId = "B559EE20-1059-4689-9947-DD10A3112B42";
paths = (
{
closed = 1;
nodes = (
"0 0 LINE",
"100 0 LINE",
"100 800 LINE",
"0 800 LINE"
);
}
);
width = 800;
}
);
unicode = 258F;
},
{
glyphname = uni258E;
lastChange = "2018-06-13 21:35:13 +0000";
layers = (
{
layerId = "B559EE20-1059-4689-9947-DD10A3112B42";
paths = (
{
closed = 1;
nodes = (
"0 0 LINE",
"200 0 LINE",
"200 800 LINE",
"0 800 LINE"
);
}
);
width = 800;
}
);
note = uni258E;
unicode = "258E,E0A5,E0B4,E0E5,E0F4,E1A5,E1B4,E1E5,E1F4,EE65,EE74,EF65,EF74";
},
{
glyphname = leftThreeEighthsBlock;
lastChange = "2018-06-13 21:38:59 +0000";
layers = (
{
layerId = "B559EE20-1059-4689-9947-DD10A3112B42";
paths = (
{
closed = 1;
nodes = (
"0 0 LINE",
"300 0 LINE",
"300 800 LINE",
"0 800 LINE"
);
}
);
width = 800;
}
);
unicode = 258D;
},
{
glyphname = leftBlock;
lastChange = "2018-06-13 21:37:48 +0000";
layers = (
{
layerId = "B559EE20-1059-4689-9947-DD10A3112B42";
paths = (
{
closed = 1;
nodes = (
"400 0 LINE",
"400 800 LINE",
"0 800 LINE",
"0 0 LINE"
);
}
);
width = 800;
}
);
note = lfblock;
unicode = 258C;
},
{
glyphname = shade;
lastChange = "2018-06-13 21:17:24 +0000";
layers = (
{
layerId = "B559EE20-1059-4689-9947-DD10A3112B42";
paths = (
{
closed = 1;
nodes = (
"400 -14.286 LINE",
"400 214.286 LINE",
"200 214.286 LINE",
"200 404.762 LINE",
"400 404.762 LINE",
"400 595.238 LINE",
"200 595.238 LINE",
"200 785.714 LINE",
"0 785.714 LINE",
"0 595.238 LINE",
"200 595.238 LINE",
"200 404.762 LINE",
"0 404.762 LINE",
"0 214.286 LINE",
"200 214.286 LINE",
"200 -14.286 LINE"
);
},
{
closed = 1;
nodes = (
"800 -14.286 LINE",
"800 214.286 LINE",
"600 214.286 LINE",
"600 404.762 LINE",
"800 404.762 LINE",
"800 595.238 LINE",
"600 595.238 LINE",
"600 785.714 LINE",
"400 785.714 LINE",
"400 595.238 LINE",
"600 595.238 LINE",
"600 404.762 LINE",
"400 404.762 LINE",
"400 214.286 LINE",
"600 214.286 LINE",
"600 -14.286 LINE"
);
}
);
width = 800;
}
);
note = shade;
unicode = "2592,E0A6,E0E6,E1A6,E1E6,E37E,E3DE,E3FF,EE66,EF66,EFDE";
},
{
glyphname = circle;
lastChange = "2018-06-13 21:17:38 +0000";
layers = (
{
layerId = "B559EE20-1059-4689-9947-DD10A3112B42";
paths = (
{
closed = 1;
nodes = (
"600 100 LINE",
"600 200 LINE",
"700 200 LINE",
"700 600 LINE",
"600 600 LINE",
"600 700 LINE",
"200 700 LINE",
"200 600 LINE",
"100 600 LINE",
"100 200 LINE",
"200 200 LINE",
"200 100 LINE"
);
},
{
closed = 1;
nodes = (
"300 500 LINE",
"500 500 LINE",
"500 300 LINE",
"300 300 LINE"
);
}
);
width = 800;
}
);
note = circle;
unicode = "25CB,25E6,25EF,E077,E0D7,EE57";
},
{
glyphname = uni25C6;
lastChange = "2018-06-13 21:18:11 +0000";
layers = (
{
layerId = "B559EE20-1059-4689-9947-DD10A3112B42";
paths = (
{
closed = 1;
nodes = (
"500 100 LINE",
"500 200 LINE",
"600 200 LINE",
"600 300 LINE",
"700 300 LINE",
"700 400 LINE",
"800 400 LINE",
"800 500 LINE",
"700 500 LINE",
"700 600 LINE",
"600 600 LINE",
"600 700 LINE",
"500 700 LINE",
"500 800 LINE",
"400 800 LINE",
"400 700 LINE",
"300 700 LINE",
"300 600 LINE",
"200 600 LINE",
"200 500 LINE",
"100 500 LINE",
"100 400 LINE",
"200 400 LINE",
"200 300 LINE",
"300 300 LINE",
"300 200 LINE",
"400 200 LINE",
"400 100 LINE"
);
}
);
width = 800;
}
);
note = uni25C6;
unicode = "25C6,2666,E07A,E0DA,EE5A";
},
{
glyphname = uni25E5;
lastChange = "2018-06-13 21:21:03 +0000";
layers = (
{
layerId = "B559EE20-1059-4689-9947-DD10A3112B42";
paths = (
{
closed = 1;
nodes = (
"800 0 LINE",
"800 800 LINE",
"0 800 LINE",
"0 700 LINE",
"100 700 LINE",
"100 600 LINE",
"200 600 LINE",
"200 500 LINE",
"300 500 LINE",
"300 400 LINE",
"400 400 LINE",
"400 300 LINE",
"500 300 LINE",
"500 200 LINE",
"600 200 LINE",
"600 100 LINE",
"700 100 LINE",
"700 0 LINE"
);
}
);
width = 800;
}
);
note = uni25E5;
unicode = "25E5,E07F,E0DF,EE5F";
},
{
glyphname = boxLightDownAndRight;
lastChange = "2018-06-13 21:28:45 +0000";
layers = (
{
layerId = "B559EE20-1059-4689-9947-DD10A3112B42";
paths = (
{
closed = 1;
nodes = (
"300 0 LINE",
"500 0 LINE",
"500 300 LINE",
"800 300 LINE",
"800 500 LINE",
"300 500 LINE"
);
}
);
width = 800;
}
);
unicode = 250C;
},
{
glyphname = boxLightVerticalAndHorizontal;
lastChange = "2018-06-13 21:27:00 +0000";
layers = (
{
layerId = "B559EE20-1059-4689-9947-DD10A3112B42";
paths = (
{
closed = 1;
nodes = (
"500 0 LINE",
"500 300 LINE",
"800 300 LINE",
"800 500 LINE",
"500 500 LINE",
"500 800 LINE",
"300 800 LINE",
"300 500 LINE",
"0 500 LINE",
"0 300 LINE",
"300 300 LINE",
"300 0 LINE"
);
}
);
width = 800;
}
);
note = SF050000;
unicode = 253C;
},
{
glyphname = boxLightVerticalAndLeft;
lastChange = "2018-06-13 21:27:48 +0000";
layers = (
{
layerId = "B559EE20-1059-4689-9947-DD10A3112B42";
paths = (
{
closed = 1;
nodes = (
"300 800 LINE",
"300 500 LINE",
"0 500 LINE",
"0 300 LINE",
"300 300 LINE",
"300 0 LINE",
"500 0 LINE",
"500 800 LINE"
);
}
);
width = 800;
}
);
unicode = 2524;
},
{
glyphname = uni256E;
lastChange = "2018-06-13 21:33:23 +0000";
layers = (
{
layerId = "B559EE20-1059-4689-9947-DD10A3112B42";
paths = (
{
closed = 1;
nodes = (
"500 0 LINE",
"500 300 LINE",
"400 300 LINE",
"400 400 LINE",
"300 400 LINE",
"300 500 LINE",
"0 500 LINE",
"0 300 LINE",
"200 300 LINE",
"200 200 LINE",
"300 200 LINE",
"300 0 LINE"
);
}
);
width = 800;
}
);
note = uni256E;
unicode = "256E,E069,E0C9,EE49";
},
{
glyphname = uni2572;
lastChange = "2018-06-13 21:20:57 +0000";
layers = (
{
layerId = "B559EE20-1059-4689-9947-DD10A3112B42";
paths = (
{
closed = 1;
nodes = (
"800 0 LINE",
"800 200 LINE",
"700 200 LINE",
"700 300 LINE",
"600 300 LINE",
"600 400 LINE",
"500 400 LINE",
"500 500 LINE",
"400 500 LINE",
"400 600 LINE",
"300 600 LINE",
"300 700 LINE",
"200 700 LINE",
"200 800 LINE",
"0 800 LINE",
"0 600 LINE",
"100 600 LINE",
"100 500 LINE",
"200 500 LINE",
"200 400 LINE",
"300 400 LINE",
"300 300 LINE",
"400 300 LINE",
"400 200 LINE",
"500 200 LINE",
"500 100 LINE",
"600 100 LINE",
"600 0 LINE"
);
}
);
width = 800;
}
);
note = uni2572;
unicode = "2572,E06D,E0CD,EE4D";
},
{
glyphname = uni2573;
lastChange = "2018-06-13 21:20:07 +0000";
layers = (
{
layerId = "B559EE20-1059-4689-9947-DD10A3112B42";
paths = (
{
closed = 1;
nodes = (
"200 0 LINE",
"200 100 LINE",
"300 100 LINE",
"300 200 LINE",
"500 200 LINE",
"500 100 LINE",
"600 100 LINE",
"600 0 LINE",
"800 0 LINE",
"800 200 LINE",
"700 200 LINE",
"700 300 LINE",
"600 300 LINE",
"600 500 LINE",
"700 500 LINE",
"700 600 LINE",
"800 600 LINE",
"800 800 LINE",
"600 800 LINE",
"600 700 LINE",
"500 700 LINE",
"500 600 LINE",
"300 600 LINE",
"300 700 LINE",
"200 700 LINE",
"200 800 LINE",
"0 800 LINE",
"0 600 LINE",
"100 600 LINE",
"100 500 LINE",
"200 500 LINE",
"200 300 LINE",
"100 300 LINE",
"100 200 LINE",
"0 200 LINE",
"0 0 LINE"
);
}
);
width = 800;
}
);
note = uni2573;
unicode = "2573,E076,E0D6,EE56";
},
{
glyphname = shademedium.001;
lastChange = "2018-06-13 21:34:22 +0000";
layers = (
{
layerId = "B559EE20-1059-4689-9947-DD10A3112B42";
paths = (
{
closed = 1;
nodes = (
"400 0 LINE",
"400 200 LINE",
"200 200 LINE",
"200 400 LINE",
"400 400 LINE",
"400 600 LINE",
"200 600 LINE",
"200 800 LINE",
"0 800 LINE",
"0 600 LINE",
"200 600 LINE",
"200 400 LINE",
"0 400 LINE",
"0 200 LINE",
"200 200 LINE",
"200 0 LINE"
);
},
{
closed = 1;
nodes = (
"800 0 LINE",
"800 200 LINE",
"600 200 LINE",
"600 400 LINE",
"800 400 LINE",
"800 600 LINE",
"600 600 LINE",
"600 800 LINE",
"400 800 LINE",
"400 600 LINE",
"600 600 LINE",
"600 400 LINE",
"400 400 LINE",
"400 200 LINE",
"600 200 LINE",
"600 0 LINE"
);
}
);
width = 800;
}
);
note = shade;
},
{
glyphname = spade;
lastChange = "2018-06-13 21:14:24 +0000";
layers = (
{
layerId = "B559EE20-1059-4689-9947-DD10A3112B42";
paths = (
{
closed = 1;
nodes = (
"700 100 LINE",
"700 200 LINE",
"600 200 LINE",
"600 300 LINE",
"800 300 LINE",
"800 500 LINE",
"700 500 LINE",
"700 600 LINE",
"600 600 LINE",
"600 700 LINE",
"500 700 LINE",
"500 800 LINE",
"400 800 LINE",
"400 700 LINE",
"300 700 LINE",
"300 600 LINE",
"200 600 LINE",
"200 500 LINE",
"100 500 LINE",
"100 300 LINE",
"300 300 LINE",
"300 200 LINE",
"200 200 LINE",
"200 100 LINE"
);
}
);
width = 800;
}
);
note = spade;
unicode = "2660,E061,E0C1,EE41";
},
{
glyphname = club;
lastChange = "2018-06-13 21:20:15 +0000";
layers = (
{
layerId = "B559EE20-1059-4689-9947-DD10A3112B42";
paths = (
{
closed = 1;
nodes = (
"600 100 LINE",
"600 200 LINE",
"500 200 LINE",
"500 400 LINE",
"700 400 LINE",
"700 600 LINE",
"500 600 LINE",
"500 400 LINE",
"300 400 LINE",
"300 600 LINE",
"500 600 LINE",
"500 800 LINE",
"300 800 LINE",
"300 600 LINE",
"100 600 LINE",
"100 400 LINE",
"300 400 LINE",
"300 200 LINE",
"200 200 LINE",
"200 100 LINE"
);
}
);
width = 800;
}
);
note = club;
unicode = "2663,E078,E0D8,EE58";
},
{
glyphname = heart;
lastChange = "2018-06-13 21:20:24 +0000";
layers = (
{
layerId = "B559EE20-1059-4689-9947-DD10A3112B42";
paths = (
{
closed = 1;
nodes = (
"500 100 LINE",
"500 200 LINE",
"600 200 LINE",
"600 300 LINE",
"700 300 LINE",
"700 400 LINE",
"800 400 LINE",
"800 700 LINE",
"700 700 LINE",
"700 800 LINE",
"500 800 LINE",
"500 700 LINE",
"400 700 LINE",
"400 800 LINE",
"200 800 LINE",
"200 700 LINE",
"100 700 LINE",
"100 400 LINE",
"200 400 LINE",
"200 300 LINE",
"300 300 LINE",
"300 200 LINE",
"400 200 LINE",
"400 100 LINE"
);
}
);
width = 800;
}
);
note = heart;
unicode = "2665,2764,E073,E0D3,EE53";
},
{
glyphname = uni2713;
lastChange = "2018-06-13 21:22:05 +0000";
layers = (
{
layerId = "B559EE20-1059-4689-9947-DD10A3112B42";
paths = (
{
closed = 1;
nodes = (
"300 100 LINE",
"300 200 LINE",
"400 200 LINE",
"400 300 LINE",
"500 300 LINE",
"500 400 LINE",
"600 400 LINE",
"600 500 LINE",
"700 500 LINE",
"700 600 LINE",
"800 600 LINE",
"800 800 LINE",
"700 800 LINE",
"700 700 LINE",
"600 700 LINE",
"600 600 LINE",
"500 600 LINE",
"500 500 LINE",
"400 500 LINE",
"400 400 LINE",
"300 400 LINE",
"300 500 LINE",
"100 500 LINE",
"100 100 LINE"
);
}
);
width = 800;
}
);
note = uni2713;
unicode = "2713,E1BA,E1FA,EF7A";
},
{
glyphname = at;
lastChange = "2018-06-13 21:11:21 +0000";
layers = (
{
layerId = "B559EE20-1059-4689-9947-DD10A3112B42";
paths = (
{
closed = 1;
nodes = (
"600 100 LINE",
"600 200 LINE",
"700 200 LINE",
"700 300 LINE",
"600 300 LINE",
"600 200 LINE",
"300 200 LINE",
"300 700 LINE",
"500 700 LINE",
"500 600 LINE",
"400 600 LINE",
"400 400 LINE",
"700 400 LINE",
"700 700 LINE",
"600 700 LINE",
"600 800 LINE",
"200 800 LINE",
"200 700 LINE",
"100 700 LINE",
"100 200 LINE",
"200 200 LINE",
"200 100 LINE"
);
}
);
width = 800;
}
);
note = at;
unicode = "0040,E040,E140,EE00,EF00";
},
{
glyphname = ampersand;
lastChange = "2018-06-13 21:11:42 +0000";
layers = (
{
layerId = "B559EE20-1059-4689-9947-DD10A3112B42";
paths = (
{
closed = 1;
nodes = (
"800 100 LINE",
"800 200 LINE",
"700 200 LINE",
"700 300 LINE",
"800 300 LINE",
"800 400 LINE",
"500 400 LINE",
"500 200 LINE",
"300 200 LINE",
"300 400 LINE",
"500 400 LINE",
"500 500 LINE",
"600 500 LINE",
"600 600 LINE",
"700 600 LINE",
"700 700 LINE",
"600 700 LINE",
"600 800 LINE",
"200 800 LINE",
"200 700 LINE",
"100 700 LINE",
"100 600 LINE",
"200 600 LINE",
"200 400 LINE",
"100 400 LINE",
"100 200 LINE",
"200 200 LINE",
"200 100 LINE"
);
},
{
closed = 1;
nodes = (
"300 700 LINE",
"500 700 LINE",
"500 600 LINE",
"300 600 LINE"
);
}
);
width = 800;
}
);
note = ampersand;
unicode = "0026,E026,E126,EE26,EF26";
},
{
glyphname = grave;
lastChange = "2018-06-13 21:25:59 +0000";
layers = (
{
layerId = "B559EE20-1059-4689-9947-DD10A3112B42";
paths = (
{
closed = 1;
nodes = (
"500 500 LINE",
"500 600 LINE",
"400 600 LINE",
"400 700 LINE",
"300 700 LINE",
"300 800 LINE",
"200 800 LINE",
"200 700 LINE",
"300 700 LINE",
"300 600 LINE",
"400 600 LINE",
"400 500 LINE"
);
}
);
width = 800;
}
);
note = grave;
unicode = 0060;
},
{
glyphname = uniE100;
lastChange = "2018-06-13 21:42:55 +0000";
layers = (
{
layerId = "B559EE20-1059-4689-9947-DD10A3112B42";
paths = (
{
closed = 1;
nodes = (
"100 0 LINE",
"200 0 LINE",
"200 800 LINE",
"100 800 LINE"
);
}
);
width = 800;
}
);
unicode = E100;
},
{
glyphname = uniE101;
lastChange = "2018-06-13 21:43:02 +0000";
layers = (
{
layerId = "B559EE20-1059-4689-9947-DD10A3112B42";
paths = (
{
closed = 1;
nodes = (
"200 0 LINE",
"300 0 LINE",
"300 800 LINE",
"200 800 LINE"
);
}
);
width = 800;
}
);
unicode = E101;
},
{
glyphname = uniE102;
lastChange = "2018-06-13 21:43:09 +0000";
layers = (
{
layerId = "B559EE20-1059-4689-9947-DD10A3112B42";
paths = (
{
closed = 1;
nodes = (
"300 0 LINE",
"400 0 LINE",
"400 800 LINE",
"300 800 LINE"
);
}
);
width = 800;
}
);
unicode = E102;
},
{
glyphname = uniE103;
lastChange = "2018-06-13 21:43:19 +0000";
layers = (
{
layerId = "B559EE20-1059-4689-9947-DD10A3112B42";
paths = (
{
closed = 1;
nodes = (
"100 0 LINE",
"300 0 LINE",
"300 800 LINE",
"100 800 LINE"
);
}
);
width = 800;
}
);
unicode = E103;
},
{
glyphname = uniE104;
lastChange = "2018-06-13 21:43:27 +0000";
layers = (
{
layerId = "B559EE20-1059-4689-9947-DD10A3112B42";
paths = (
{
closed = 1;
nodes = (
"200 0 LINE",
"400 0 LINE",
"400 800 LINE",
"200 800 LINE"
);
}
);
width = 800;
}
);
unicode = E104;
},
{
glyphname = uniE105;
lastChange = "2018-06-13 21:43:33 +0000";
layers = (
{
layerId = "B559EE20-1059-4689-9947-DD10A3112B42";
paths = (
{
closed = 1;
nodes = (
"100 0 LINE",
"400 0 LINE",
"400 800 LINE",
"100 800 LINE"
);
}
);
width = 800;
}
);
unicode = E105;
},
{
glyphname = uniE106;
lastChange = "2018-06-13 21:45:31 +0000";
layers = (
{
layerId = "B559EE20-1059-4689-9947-DD10A3112B42";
paths = (
{
closed = 1;
nodes = (
"0 0 LINE",
"100 0 LINE",
"100 100 LINE",
"0 100 LINE"
);
}
);
width = 800;
}
);
unicode = E106;
},
{
glyphname = uniE107;
lastChange = "2018-06-13 21:45:35 +0000";
layers = (
{
layerId = "B559EE20-1059-4689-9947-DD10A3112B42";
paths = (
{
closed = 1;
nodes = (
"0 0 LINE",
"200 0 LINE",
"200 200 LINE",
"0 200 LINE"
);
}
);
width = 800;
}
);
unicode = E107;
},
{
glyphname = uniE108;
lastChange = "2018-06-13 21:45:43 +0000";
layers = (
{
layerId = "B559EE20-1059-4689-9947-DD10A3112B42";
paths = (
{
closed = 1;
nodes = (
"0 0 LINE",
"300 0 LINE",
"300 300 LINE",
"0 300 LINE"
);
}
);
width = 800;
}
);
unicode = E108;
},
{
glyphname = uniE109;
lastChange = "2018-06-13 21:45:50 +0000";
layers = (
{
layerId = "B559EE20-1059-4689-9947-DD10A3112B42";
paths = (
{
closed = 1;
nodes = (
"0 0 LINE",
"400 0 LINE",
"400 400 LINE",
"0 400 LINE"
);
}
);
width = 800;
}
);
unicode = E109;
},
{
glyphname = uniE17C;
lastChange = "2018-06-13 21:20:33 +0000";
layers = (
{
layerId = "B559EE20-1059-4689-9947-DD10A3112B42";
paths = (
{
closed = 1;
nodes = (
"400 0 LINE",
"400 200 LINE",
"200 200 LINE",
"200 400 LINE",
"400 400 LINE",
"400 600 LINE",
"200 600 LINE",
"200 800 LINE",
"0 800 LINE",
"0 600 LINE",
"200 600 LINE",
"200 400 LINE",
"0 400 LINE",
"0 200 LINE",
"200 200 LINE",
"200 0 LINE"
);
}
);
width = 800;
}
);
note = uniE17C;
unicode = "E07C,E0DC,E17C,E1DC,EE5C,EF5C";
},
{
glyphname = uniE17F;
lastChange = "2018-06-13 21:25:05 +0000";
layers = (
{
layerId = "B559EE20-1059-4689-9947-DD10A3112B42";
paths = (
{
closed = 1;
nodes = (
"700 0 LINE",
"700 100 LINE",
"600 100 LINE",
"600 200 LINE",
"500 200 LINE",
"500 300 LINE",
"400 300 LINE",
"400 400 LINE",
"300 400 LINE",
"300 500 LINE",
"200 500 LINE",
"200 600 LINE",
"100 600 LINE",
"100 700 LINE",
"0 700 LINE",
"0 500 LINE",
"100 500 LINE",
"100 400 LINE",
"200 400 LINE",
"200 300 LINE",
"300 300 LINE",
"300 200 LINE",
"400 200 LINE",
"400 100 LINE",
"500 100 LINE",
"500 0 LINE"
);
},
{
closed = 1;
nodes = (
"800 200 LINE",
"800 400 LINE",
"700 400 LINE",
"700 500 LINE",
"600 500 LINE",
"600 600 LINE",
"500 600 LINE",
"500 700 LINE",
"400 700 LINE",
"400 800 LINE",
"200 800 LINE",
"200 700 LINE",
"300 700 LINE",
"300 600 LINE",
"400 600 LINE",
"400 500 LINE",
"500 500 LINE",
"500 400 LINE",
"600 400 LINE",
"600 300 LINE",
"700 300 LINE",
"700 200 LINE"
);
},
{
closed = 1;
nodes = (
"800 600 LINE",
"800 800 LINE",
"600 800 LINE",
"600 700 LINE",
"700 700 LINE",
"700 600 LINE"
);
},
{
closed = 1;
nodes = (
"300 0 LINE",
"300 100 LINE",
"200 100 LINE",
"200 200 LINE",
"100 200 LINE",
"100 300 LINE",
"0 300 LINE",
"0 100 LINE",
"100 100 LINE",
"100 0 LINE"
);
}
);
width = 800;
}
);
note = uniE17F;
unicode = "E17F,E1DF,EF5F";
},
{
glyphname = uniE200;
lastChange = "2018-06-13 21:54:34 +0000";
layers = (
{
components = (
{
name = uniE106;
transform = "{1, 0, 0, 1, 0, 700}";
},
{
name = uniE106;
transform = "{1, 0, 0, 1, 200, 700}";
},
{
name = uniE106;
transform = "{1, 0, 0, 1, 400, 700}";
},
{
name = uniE106;
transform = "{1, 0, 0, 1, 700, 700}";
},
{
name = uniE106;
transform = "{1, 0, 0, 1, 500, 600}";
},
{
name = uniE106;
transform = "{1, 0, 0, 1, 300, 600}";
},
{
name = uniE106;
transform = "{1, 0, 0, 1, 100, 600}";
},
{
name = uniE106;
transform = "{1, 0, 0, 1, 0, 500}";
},
{
name = uniE106;
transform = "{1, 0, 0, 1, 100, 400}";
},
{
name = uniE106;
transform = "{1, 0, 0, 1, 0, 300}";
},
{
name = uniE106;
transform = "{1, 0, 0, 1, 100, 200}";
},
{
name = uniE106;
},
{
name = uniE106;
transform = "{1, 0, 0, 1, 200, 100}";
},
{
name = uniE106;
transform = "{1, 0, 0, 1, 300, 0}";
},
{
name = uniE106;
transform = "{1, 0, 0, 1, 400, 100}";
},
{
name = uniE106;
transform = "{1, 0, 0, 1, 500, 0}";
},
{
name = uniE106;
transform = "{1, 0, 0, 1, 600, 100}";
},
{
name = uniE106;
transform = "{1, 0, 0, 1, 700, 200}";
},
{
name = uniE106;
transform = "{1, 0, 0, 1, 600, 300}";
},
{
name = uniE106;
transform = "{1, 0, 0, 1, 700, 400}";
},
{
name = uniE106;
transform = "{1, 0, 0, 1, 600, 500}";
},
{
name = uniE106;
transform = "{1, 0, 0, 1, 700, 0}";
}
);
layerId = "B559EE20-1059-4689-9947-DD10A3112B42";
paths = (
{
closed = 1;
nodes = (
"200 200 LINE",
"600 200 LINE",
"600 600 LINE",
"200 600 LINE"
);
}
);
width = 800;
}
);
unicode = E200;
},
{
glyphname = uniE201;
lastChange = "2018-06-13 21:55:18 +0000";
layers = (
{
components = (
{
name = uniE106;
transform = "{1, 0, 0, 1, 100, 400}";
},
{
name = uniE106;
transform = "{1, 0, 0, 1, 100, 500}";
},
{
name = uniE106;
transform = "{1, 0, 0, 1, 200, 500}";
},
{
name = uniE106;
transform = "{1, 0, 0, 1, 200, 600}";
},
{
name = uniE106;
transform = "{1, 0, 0, 1, 300, 600}";
}
);
layerId = "B559EE20-1059-4689-9947-DD10A3112B42";
paths = (
{
closed = 1;
nodes = (
"0 0 LINE",
"100 0 LINE",
"100 500 LINE",
"0 500 LINE"
);
},
{
closed = 1;
nodes = (
"800 700 LINE",
"800 800 LINE",
"300 800 LINE",
"300 700 LINE"
);
}
);
width = 800;
}
);
unicode = E201;
},
{
glyphname = uniE203;
lastChange = "2018-06-13 21:57:41 +0000";
layers = (
{
components = (
{
name = uniE106;
},
{
name = uniE106;
transform = "{1, 0, 0, 1, 100, 100}";
},
{
name = uniE106;
transform = "{1, 0, 0, 1, 0, 200}";
},
{
name = uniE106;
transform = "{1, 0, 0, 1, 100, 300}";
},
{
name = uniE106;
transform = "{1, 0, 0, 1, 100, 500}";
},
{
name = uniE106;
transform = "{1, 0, 0, 1, 0, 400}";
},
{
name = uniE106;
transform = "{1, 0, 0, 1, 0, 600}";
},
{
name = uniE106;
transform = "{1, 0, 0, 1, 100, 700}";
},
{
name = uniE106;
transform = "{1, 0, 0, 1, 200, 600}";
},
{
name = uniE106;
transform = "{1, 0, 0, 1, 200, 400}";
},
{
name = uniE106;
transform = "{1, 0, 0, 1, 300, 500}";
},
{
name = uniE106;
transform = "{1, 0, 0, 1, 300, 700}";
},
{
name = uniE106;
transform = "{1, 0, 0, 1, 400, 600}";
},
{
name = uniE106;
transform = "{1, 0, 0, 1, 500, 700}";
},
{
name = uniE106;
transform = "{1, 0, 0, 1, 600, 600}";
},
{
name = uniE106;
transform = "{1, 0, 0, 1, 700, 700}";
},
{
name = uniE106;
transform = "{1, 0, 0, 1, 700, 500}";
},
{
name = uniE106;
transform = "{1, 0, 0, 1, 500, 500}";
},
{
name = uniE106;
transform = "{1, 0, 0, 1, 200, 200}";
},
{
name = uniE106;
transform = "{1, 0, 0, 1, 200, 0}";
}
);
layerId = "B559EE20-1059-4689-9947-DD10A3112B42";
paths = (
{
closed = 1;
nodes = (
"300 0 LINE",
"800 0 LINE",
"800 500 LINE",
"400 500 LINE",
"400 400 LINE",
"300 400 LINE"
);
}
);
width = 800;
}
);
unicode = E203;
},
{
glyphname = uniE204;
lastChange = "2018-06-13 21:58:20 +0000";
layers = (
{
layerId = "B559EE20-1059-4689-9947-DD10A3112B42";
paths = (
{
closed = 1;
nodes = (
"400 800 LINE",
"400 600 LINE",
"200 600 LINE",
"200 400 LINE",
"0 400 LINE",
"0 0 LINE",
"100 0 LINE",
"100 300 LINE",
"300 300 LINE",
"300 500 LINE",
"500 500 LINE",
"500 700 LINE",
"800 700 LINE",
"800 800 LINE"
);
},
{
closed = 1;
nodes = (
"0 800 LINE",
"0 700 LINE",
"100 700 LINE",
"100 800 LINE"
);
},
{
closed = 1;
nodes = (
"200 800 LINE",
"200 700 LINE",
"300 700 LINE",
"300 800 LINE"
);
},
{
closed = 1;
nodes = (
"0 600 LINE",
"0 500 LINE",
"100 500 LINE",
"100 600 LINE"
);
}
);
width = 800;
}
);
unicode = E204;
},
{
glyphname = uniE205;
lastChange = "2018-06-13 22:00:08 +0000";
layers = (
{
layerId = "B559EE20-1059-4689-9947-DD10A3112B42";
paths = (
{
closed = 1;
nodes = (
"300 200 LINE",
"500 200 LINE",
"500 600 LINE",
"300 600 LINE"
);
},
{
closed = 1;
nodes = (
"500 600 LINE",
"700 600 LINE",
"700 700 LINE",
"500 700 LINE"
);
},
{
closed = 1;
nodes = (
"700 500 LINE",
"800 500 LINE",
"800 600 LINE",
"700 600 LINE"
);
},
{
closed = 1;
nodes = (
"500 600 LINE",
"700 600 LINE",
"700 700 LINE",
"500 700 LINE"
);
},
{
closed = 1;
nodes = (
"700 500 LINE",
"800 500 LINE",
"800 600 LINE",
"700 600 LINE"
);
},
{
closed = 1;
nodes = (
"100 600 LINE",
"300 600 LINE",
"300 700 LINE",
"100 700 LINE"
);
},
{
closed = 1;
nodes = (
"0 500 LINE",
"100 500 LINE",
"100 600 LINE",
"0 600 LINE"
);
},
{
closed = 1;
nodes = (
"100 100 LINE",
"300 100 LINE",
"300 200 LINE",
"100 200 LINE"
);
},
{
closed = 1;
nodes = (
"0 200 LINE",
"100 200 LINE",
"100 300 LINE",
"0 300 LINE"
);
},
{
closed = 1;
nodes = (
"500 100 LINE",
"700 100 LINE",
"700 200 LINE",
"500 200 LINE"
);
},
{
closed = 1;
nodes = (
"700 200 LINE",
"800 200 LINE",
"800 300 LINE",
"700 300 LINE"
);
}
);
width = 800;
}
);
unicode = E205;
},
{
glyphname = uniE206;
lastChange = "2018-06-13 22:44:24 +0000";
layers = (
{
layerId = "B559EE20-1059-4689-9947-DD10A3112B42";
paths = (
{
closed = 1;
nodes = (
"100 600 LINE",
"300 600 LINE",
"300 700 LINE",
"100 700 LINE"
);
},
{
closed = 1;
nodes = (
"0 500 LINE",
"100 500 LINE",
"100 600 LINE",
"0 600 LINE"
);
},
{
closed = 1;
nodes = (
"300 500 LINE",
"500 500 LINE",
"500 600 LINE",
"300 600 LINE"
);
},
{
closed = 1;
nodes = (
"500 600 LINE",
"700 600 LINE",
"700 700 LINE",
"500 700 LINE"
);
},
{
closed = 1;
nodes = (
"700 500 LINE",
"800 500 LINE",
"800 600 LINE",
"700 600 LINE"
);
},
{
closed = 1;
nodes = (
"500 400 LINE",
"600 400 LINE",
"600 500 LINE",
"500 500 LINE"
);
},
{
closed = 1;
nodes = (
"200 400 LINE",
"300 400 LINE",
"300 500 LINE",
"200 500 LINE"
);
},
{
closed = 1;
nodes = (
"100 300 LINE",
"200 300 LINE",
"200 400 LINE",
"100 400 LINE"
);
},
{
closed = 1;
nodes = (
"200 100 LINE",
"300 100 LINE",
"300 300 LINE",
"200 300 LINE"
);
},
{
closed = 1;
nodes = (
"100 0 LINE",
"200 0 LINE",
"200 100 LINE",
"100 100 LINE"
);
},
{
closed = 1;
nodes = (
"0 100 LINE",
"100 100 LINE",
"100 200 LINE",
"0 200 LINE"
);
},
{
closed = 1;
nodes = (
"500 100 LINE",
"600 100 LINE",
"600 300 LINE",
"500 300 LINE"
);
},
{
closed = 1;
nodes = (
"600 300 LINE",
"700 300 LINE",
"700 400 LINE",
"600 400 LINE"
);
},
{
closed = 1;
nodes = (
"600 0 LINE",
"700 0 LINE",
"700 100 LINE",
"600 100 LINE"
);
},
{
closed = 1;
nodes = (
"700 100 LINE",
"800 100 LINE",
"800 200 LINE",
"700 200 LINE"
);
}
);
width = 800;
}
);
unicode = E206;
},
{
glyphname = uniE207;
lastChange = "2018-06-13 22:10:25 +0000";
layers = (
{
layerId = "B559EE20-1059-4689-9947-DD10A3112B42";
paths = (
{
closed = 1;
nodes = (
"700 700 LINE",
"600 700 LINE",
"600 800 LINE",
"200 800 LINE",
"200 700 LINE",
"100 700 LINE",
"100 600 LINE",
"0 600 LINE",
"0 300 LINE",
"100 300 LINE",
"100 200 LINE",
"200 200 LINE",
"200 0 LINE",
"300 0 LINE",
"300 100 LINE",
"500 100 LINE",
"500 0 LINE",
"600 0 LINE",
"600 200 LINE",
"700 200 LINE",
"700 300 LINE",
"800 300 LINE",
"800 600 LINE",
"700 600 LINE"
);
},
{
closed = 1;
nodes = (
"600 400 LINE",
"600 300 LINE",
"500 300 LINE",
"500 200 LINE",
"300 200 LINE",
"300 300 LINE",
"200 300 LINE",
"200 400 LINE",
"100 400 LINE",
"100 500 LINE",
"200 500 LINE",
"200 600 LINE",
"300 600 LINE",
"300 700 LINE",
"500 700 LINE",
"500 600 LINE",
"600 600 LINE",
"600 500 LINE",
"700 500 LINE",
"700 400 LINE"
);
}
);
width = 800;
}
);
unicode = E207;
},
{
glyphname = uniE211;
lastChange = "2018-06-13 22:13:48 +0000";
layers = (
{
components = (
{
name = uniE106;
},
{
name = uniE106;
transform = "{1, 0, 0, 1, 100, 100}";
},
{
name = uniE106;
transform = "{1, 0, 0, 1, 200, 200}";
},
{
name = uniE106;
transform = "{1, 0, 0, 1, 300, 300}";
},
{
name = uniE106;
transform = "{1, 0, 0, 1, 400, 400}";
},
{
name = uniE106;
transform = "{1, 0, 0, 1, 500, 500}";
},
{
name = uniE106;
transform = "{1, 0, 0, 1, 600, 600}";
},
{
name = uniE106;
transform = "{1, 0, 0, 1, 700, 700}";
}
);
layerId = "B559EE20-1059-4689-9947-DD10A3112B42";
paths = (
{
closed = 1;
nodes = (
"700 0 LINE",
"800 0 LINE",
"800 600 LINE",
"700 600 LINE"
);
}
);
width = 800;
}
);
unicode = E211;
},
{
glyphname = uniE212;
lastChange = "2018-06-13 22:14:21 +0000";
layers = (
{
components = (
{
name = uniE106;
transform = "{1, 0, 0, 1, 300, 400}";
},
{
name = uniE106;
transform = "{1, 0, 0, 1, 400, 300}";
},
{
name = uniE106;
transform = "{1, 0, 0, 1, 500, 200}";
},
{
name = uniE106;
transform = "{1, 0, 0, 1, 600, 100}";
},
{
name = uniE106;
transform = "{1, 0, 0, 1, 700, 0}";
}
);
layerId = "B559EE20-1059-4689-9947-DD10A3112B42";
paths = (
{
closed = 1;
nodes = (
"0 0 LINE",
"100 0 LINE",
"100 600 LINE",
"0 600 LINE"
);
},
{
closed = 1;
nodes = (
"100 500 LINE",
"300 500 LINE",
"300 600 LINE",
"100 600 LINE"
);
}
);
width = 800;
}
);
unicode = E212;
},
{
glyphname = uniE213;
lastChange = "2018-06-13 22:14:53 +0000";
layers = (
{
components = (
{
name = uniE106;
},
{
name = uniE106;
transform = "{1, 0, 0, 1, 200, 0}";
},
{
name = uniE106;
transform = "{1, 0, 0, 1, 400, 0}";
},
{
name = uniE106;
transform = "{1, 0, 0, 1, 600, 0}";
},
{
name = uniE106;
transform = "{1, 0, 0, 1, 600, 200}";
},
{
name = uniE106;
transform = "{1, 0, 0, 1, 400, 200}";
},
{
name = uniE106;
transform = "{1, 0, 0, 1, 200, 200}";
},
{
name = uniE106;
transform = "{1, 0, 0, 1, 0, 200}";
},
{
name = uniE106;
transform = "{1, 0, 0, 1, 0, 500}";
},
{
name = uniE106;
transform = "{1, 0, 0, 1, 100, 400}";
},
{
name = uniE106;
transform = "{1, 0, 0, 1, 200, 500}";
},
{
name = uniE106;
transform = "{1, 0, 0, 1, 300, 600}";
},
{
name = uniE106;
transform = "{1, 0, 0, 1, 400, 500}";
},
{
name = uniE106;
transform = "{1, 0, 0, 1, 500, 400}";
},
{
name = uniE106;
transform = "{1, 0, 0, 1, 600, 500}";
},
{
name = uniE106;
transform = "{1, 0, 0, 1, 700, 600}";
}
);
layerId = "B559EE20-1059-4689-9947-DD10A3112B42";
paths = (
{
closed = 1;
nodes = (
"0 100 LINE",
"800 100 LINE",
"800 200 LINE",
"0 200 LINE"
);
}
);
width = 800;
}
);
unicode = E213;
},
{
glyphname = uniE214;
lastChange = "2018-06-13 22:15:19 +0000";
layers = (
{
components = (
{
name = uniE106;
transform = "{1, 0, 0, 1, 200, 500}";
},
{
name = uniE106;
transform = "{1, 0, 0, 1, 400, 500}";
},
{
name = uniE106;
transform = "{1, 0, 0, 1, 600, 500}";
},
{
name = uniE106;
transform = "{1, 0, 0, 1, 600, 700}";
},
{
name = uniE106;
transform = "{1, 0, 0, 1, 400, 700}";
},
{
name = uniE106;
transform = "{1, 0, 0, 1, 200, 700}";
},
{
name = uniE106;
transform = "{1, 0, 0, 1, 0, 700}";
},
{
name = uniE106;
transform = "{1, 0, 0, 1, 0, 500}";
}
);
layerId = "B559EE20-1059-4689-9947-DD10A3112B42";
paths = (
{
closed = 1;
nodes = (
"0 600 LINE",
"800 600 LINE",
"800 700 LINE",
"0 700 LINE"
);
}
);
width = 800;
}
);
unicode = E214;
},
{
glyphname = uniE215;
lastChange = "2018-06-13 22:16:07 +0000";
layers = (
{
components = (
{
name = uniE106;
transform = "{1, 0, 0, 1, 100, 500}";
},
{
name = uniE106;
transform = "{1, 0, 0, 1, 100, 700}";
},
{
name = uniE106;
transform = "{1, 0, 0, 1, 600, 700}";
},
{
name = uniE106;
transform = "{1, 0, 0, 1, 600, 500}";
}
);
layerId = "B559EE20-1059-4689-9947-DD10A3112B42";
paths = (
{
closed = 1;
nodes = (
"300 700 LINE",
"500 700 LINE",
"500 800 LINE",
"300 800 LINE"
);
},
{
closed = 1;
nodes = (
"300 500 LINE",
"500 500 LINE",
"500 600 LINE",
"300 600 LINE"
);
},
{
closed = 1;
nodes = (
"100 100 LINE",
"200 100 LINE",
"200 400 LINE",
"100 400 LINE"
);
},
{
closed = 1;
nodes = (
"200 0 LINE",
"600 0 LINE",
"600 100 LINE",
"200 100 LINE"
);
},
{
closed = 1;
nodes = (
"600 100 LINE",
"700 100 LINE",
"700 400 LINE",
"600 400 LINE"
);
}
);
width = 800;
}
);
unicode = E215;
},
{
glyphname = uniE216;
lastChange = "2018-06-13 22:16:44 +0000";
layers = (
{
layerId = "B559EE20-1059-4689-9947-DD10A3112B42";
paths = (
{
closed = 1;
nodes = (
"500 600 LINE",
"500 800 LINE",
"300 800 LINE",
"300 500 LINE",
"400 500 LINE",
"400 400 LINE",
"500 400 LINE",
"500 300 LINE",
"800 300 LINE",
"800 500 LINE",
"600 500 LINE",
"600 600 LINE"
);
},
{
closed = 1;
nodes = (
"600 700 LINE",
"700 700 LINE",
"700 800 LINE",
"600 800 LINE"
);
},
{
closed = 1;
nodes = (
"700 600 LINE",
"800 600 LINE",
"800 700 LINE",
"700 700 LINE"
);
},
{
closed = 1;
nodes = (
"300 400 LINE",
"300 500 LINE",
"0 500 LINE",
"0 300 LINE",
"200 300 LINE",
"200 200 LINE",
"300 200 LINE",
"300 0 LINE",
"500 0 LINE",
"500 300 LINE",
"400 300 LINE",
"400 400 LINE"
);
},
{
closed = 1;
nodes = (
"0 100 LINE",
"100 100 LINE",
"100 200 LINE",
"0 200 LINE"
);
},
{
closed = 1;
nodes = (
"200 0 LINE",
"200 100 LINE",
"100 100 LINE",
"100 0 LINE"
);
}
);
width = 800;
}
);
unicode = E216;
},
{
glyphname = uniE217;
lastChange = "2018-06-13 22:17:09 +0000";
layers = (
{
layerId = "B559EE20-1059-4689-9947-DD10A3112B42";
paths = (
{
closed = 1;
nodes = (
"0 700 LINE",
"0 100 LINE",
"100 100 LINE",
"100 0 LINE",
"500 0 LINE",
"500 100 LINE",
"200 100 LINE",
"200 700 LINE",
"500 700 LINE",
"500 800 LINE",
"100 800 LINE",
"100 700 LINE"
);
},
{
closed = 1;
nodes = (
"600 700 LINE",
"700 700 LINE",
"700 800 LINE",
"600 800 LINE"
);
},
{
closed = 1;
nodes = (
"700 0 LINE",
"700 100 LINE",
"600 100 LINE",
"600 0 LINE"
);
}
);
width = 800;
}
);
unicode = E217;
},
{
glyphname = uniE219;
lastChange = "2018-06-13 22:18:25 +0000";
layers = (
{
layerId = "B559EE20-1059-4689-9947-DD10A3112B42";
paths = (
{
closed = 1;
nodes = (
"600 500 LINE",
"600 600 LINE",
"500 600 LINE",
"500 700 LINE",
"300 700 LINE",
"300 600 LINE",
"200 600 LINE",
"200 500 LINE",
"100 500 LINE",
"100 300 LINE",
"200 300 LINE",
"200 200 LINE",
"300 200 LINE",
"300 100 LINE",
"500 100 LINE",
"500 200 LINE",
"600 200 LINE",
"600 300 LINE",
"700 300 LINE",
"700 500 LINE"
);
}
);
width = 800;
}
);
unicode = E219;
},
{
glyphname = uniE220;
lastChange = "2018-06-13 22:19:31 +0000";
layers = (
{
layerId = "B559EE20-1059-4689-9947-DD10A3112B42";
paths = (
{
closed = 1;
nodes = (
"200 700 LINE",
"600 700 LINE",
"600 800 LINE",
"200 800 LINE"
);
},
{
closed = 1;
nodes = (
"200 600 LINE",
"200 700 LINE",
"100 700 LINE",
"100 600 LINE"
);
},
{
closed = 1;
nodes = (
"600 600 LINE",
"700 600 LINE",
"700 700 LINE",
"600 700 LINE"
);
},
{
closed = 1;
nodes = (
"100 200 LINE",
"100 600 LINE",
"0 600 LINE",
"0 200 LINE"
);
},
{
closed = 1;
nodes = (
"700 200 LINE",
"800 200 LINE",
"800 600 LINE",
"700 600 LINE"
);
},
{
closed = 1;
nodes = (
"400 200 LINE",
"400 300 LINE",
"300 300 LINE",
"300 400 LINE",
"400 400 LINE",
"400 500 LINE",
"200 500 LINE",
"200 0 LINE",
"400 0 LINE",
"400 100 LINE",
"300 100 LINE",
"300 200 LINE"
);
},
{
closed = 1;
nodes = (
"400 400 LINE",
"400 300 LINE",
"500 300 LINE",
"500 200 LINE",
"400 200 LINE",
"400 100 LINE",
"500 100 LINE",
"500 0 LINE",
"600 0 LINE",
"600 500 LINE",
"500 500 LINE",
"500 400 LINE"
);
}
);
width = 800;
}
);
unicode = E220;
},
{
glyphname = uniE221;
lastChange = "2018-06-13 22:20:00 +0000";
layers = (
{
layerId = "B559EE20-1059-4689-9947-DD10A3112B42";
paths = (
{
closed = 1;
nodes = (
"200 600 LINE",
"200 500 LINE",
"300 500 LINE",
"300 800 LINE",
"100 800 LINE",
"100 600 LINE"
);
},
{
closed = 1;
nodes = (
"500 800 LINE",
"500 500 LINE",
"600 500 LINE",
"600 600 LINE",
"700 600 LINE",
"700 800 LINE"
);
},
{
closed = 1;
nodes = (
"100 300 LINE",
"200 300 LINE",
"200 200 LINE",
"300 200 LINE",
"300 400 LINE",
"100 400 LINE"
);
},
{
closed = 1;
nodes = (
"500 200 LINE",
"600 200 LINE",
"600 300 LINE",
"700 300 LINE",
"700 400 LINE",
"500 400 LINE"
);
},
{
closed = 1;
nodes = (
"300 0 LINE",
"300 100 LINE",
"200 100 LINE",
"200 0 LINE"
);
},
{
closed = 1;
nodes = (
"600 0 LINE",
"600 100 LINE",
"500 100 LINE",
"500 0 LINE"
);
}
);
width = 800;
}
);
unicode = E221;
},
{
glyphname = uniE222;
lastChange = "2018-06-13 22:20:45 +0000";
layers = (
{
layerId = "B559EE20-1059-4689-9947-DD10A3112B42";
paths = (
{
closed = 1;
nodes = (
"700 800 LINE",
"100 800 LINE",
"100 700 LINE",
"0 700 LINE",
"0 500 LINE",
"200 500 LINE",
"200 700 LINE",
"600 700 LINE",
"600 500 LINE",
"800 500 LINE",
"800 700 LINE",
"700 700 LINE"
);
},
{
closed = 1;
nodes = (
"300 600 LINE",
"300 500 LINE",
"500 500 LINE",
"500 600 LINE"
);
},
{
closed = 1;
nodes = (
"200 200 LINE",
"200 400 LINE",
"0 400 LINE",
"0 200 LINE",
"100 200 LINE",
"100 100 LINE",
"300 100 LINE",
"300 0 LINE",
"500 0 LINE",
"500 100 LINE",
"700 100 LINE",
"700 200 LINE",
"800 200 LINE",
"800 400 LINE",
"600 400 LINE",
"600 200 LINE"
);
},
{
closed = 1;
nodes = (
"500 300 LINE",
"500 400 LINE",
"300 400 LINE",
"300 300 LINE"
);
}
);
width = 800;
}
);
unicode = E222;
},
{
glyphname = uniE223;
lastChange = "2018-06-13 22:21:39 +0000";
layers = (
{
components = (
{
name = uniE106;
transform = "{1, 0, 0, 1, 600, 100}";
},
{
name = uniE106;
transform = "{1, 0, 0, 1, 700, 0}";
},
{
name = uniE106;
transform = "{1, 0, 0, 1, 700, 200}";
},
{
name = uniE106;
transform = "{1, 0, 0, 1, 500, 500}";
},
{
name = uniE106;
transform = "{1, 0, 0, 1, 500, 200}";
},
{
name = uniE106;
transform = "{1, 0, 0, 1, 700, 500}";
},
{
name = uniE106;
transform = "{1, 0, 0, 1, 600, 600}";
},
{
name = uniE106;
transform = "{1, 0, 0, 1, 700, 700}";
}
);
layerId = "B559EE20-1059-4689-9947-DD10A3112B42";
paths = (
{
closed = 1;
nodes = (
"200 700 LINE",
"100 700 LINE",
"100 600 LINE",
"0 600 LINE",
"0 500 LINE",
"400 500 LINE",
"400 600 LINE",
"500 600 LINE",
"500 700 LINE",
"600 700 LINE",
"600 800 LINE",
"200 800 LINE"
);
},
{
closed = 1;
nodes = (
"400 200 LINE",
"400 300 LINE",
"0 300 LINE",
"0 200 LINE",
"100 200 LINE",
"100 100 LINE",
"200 100 LINE",
"200 0 LINE",
"600 0 LINE",
"600 100 LINE",
"500 100 LINE",
"500 200 LINE"
);
}
);
width = 800;
}
);
unicode = E223;
},
{
glyphname = uniE224;
lastChange = "2018-06-13 22:22:39 +0000";
layers = (
{
layerId = "B559EE20-1059-4689-9947-DD10A3112B42";
paths = (
{
closed = 1;
nodes = (
"200 600 LINE",
"200 500 LINE",
"100 500 LINE",
"100 400 LINE",
"200 400 LINE",
"200 300 LINE",
"100 300 LINE",
"100 200 LINE",
"200 200 LINE",
"200 0 LINE",
"300 0 LINE",
"300 700 LINE",
"100 700 LINE",
"100 600 LINE"
);
},
{
closed = 1;
nodes = (
"700 700 LINE",
"500 700 LINE",
"500 0 LINE",
"600 0 LINE",
"600 200 LINE",
"700 200 LINE",
"700 300 LINE",
"600 300 LINE",
"600 400 LINE",
"700 400 LINE",
"700 500 LINE",
"600 500 LINE",
"600 600 LINE",
"700 600 LINE"
);
}
);
width = 800;
}
);
unicode = E224;
},
{
glyphname = uniE225;
lastChange = "2018-06-13 22:23:20 +0000";
layers = (
{
layerId = "B559EE20-1059-4689-9947-DD10A3112B42";
paths = (
{
closed = 1;
nodes = (
"500 700 LINE",
"300 700 LINE",
"300 500 LINE",
"100 500 LINE",
"100 0 LINE",
"200 0 LINE",
"200 400 LINE",
"300 400 LINE",
"300 200 LINE",
"500 200 LINE",
"500 400 LINE",
"600 400 LINE",
"600 0 LINE",
"700 0 LINE",
"700 500 LINE",
"500 500 LINE"
);
},
{
closed = 1;
nodes = (
"100 700 LINE",
"100 600 LINE",
"200 600 LINE",
"200 700 LINE"
);
},
{
closed = 1;
nodes = (
"600 600 LINE",
"700 600 LINE",
"700 700 LINE",
"600 700 LINE"
);
},
{
closed = 1;
nodes = (
"500 0 LINE",
"500 100 LINE",
"300 100 LINE",
"300 0 LINE"
);
}
);
width = 800;
}
);
unicode = E225;
},
{
glyphname = uniE226;
lastChange = "2018-06-13 22:23:46 +0000";
layers = (
{
layerId = "B559EE20-1059-4689-9947-DD10A3112B42";
paths = (
{
closed = 1;
nodes = (
"600 700 LINE",
"200 700 LINE",
"200 500 LINE",
"0 500 LINE",
"0 200 LINE",
"100 200 LINE",
"100 400 LINE",
"300 400 LINE",
"300 600 LINE",
"500 600 LINE",
"500 400 LINE",
"700 400 LINE",
"700 200 LINE",
"800 200 LINE",
"800 500 LINE",
"600 500 LINE"
);
},
{
closed = 1;
nodes = (
"500 200 LINE",
"500 300 LINE",
"300 300 LINE",
"300 200 LINE"
);
},
{
closed = 1;
nodes = (
"500 0 LINE",
"500 100 LINE",
"300 100 LINE",
"300 0 LINE"
);
}
);
width = 800;
}
);
unicode = E226;
},
{
glyphname = uniE228;
lastChange = "2018-06-13 22:25:06 +0000";
layers = (
{
layerId = "B559EE20-1059-4689-9947-DD10A3112B42";
paths = (
{
closed = 1;
nodes = (
"200 600 LINE",
"600 600 LINE",
"600 700 LINE",
"200 700 LINE"
);
},
{
closed = 1;
nodes = (
"600 200 LINE",
"700 200 LINE",
"700 600 LINE",
"600 600 LINE"
);
},
{
closed = 1;
nodes = (
"200 100 LINE",
"600 100 LINE",
"600 200 LINE",
"200 200 LINE"
);
},
{
closed = 1;
nodes = (
"100 200 LINE",
"200 200 LINE",
"200 600 LINE",
"100 600 LINE"
);
}
);
width = 800;
}
);
unicode = E228;
},
{
glyphname = uniE229;
lastChange = "2018-06-13 22:25:52 +0000";
layers = (
{
layerId = "B559EE20-1059-4689-9947-DD10A3112B42";
paths = (
{
closed = 1;
nodes = (
"100 500 LINE",
"200 500 LINE",
"200 700 LINE",
"100 700 LINE"
);
},
{
closed = 1;
nodes = (
"200 700 LINE",
"600 700 LINE",
"600 800 LINE",
"200 800 LINE"
);
},
{
closed = 1;
nodes = (
"600 500 LINE",
"700 500 LINE",
"700 700 LINE",
"600 700 LINE"
);
},
{
closed = 1;
nodes = (
"300 400 LINE",
"500 400 LINE",
"500 500 LINE",
"300 500 LINE"
);
},
{
closed = 1;
nodes = (
"600 200 LINE",
"700 200 LINE",
"700 400 LINE",
"600 400 LINE"
);
},
{
closed = 1;
nodes = (
"200 100 LINE",
"600 100 LINE",
"600 200 LINE",
"200 200 LINE"
);
},
{
closed = 1;
nodes = (
"100 200 LINE",
"200 200 LINE",
"200 400 LINE",
"100 400 LINE"
);
}
);
width = 800;
}
);
unicode = E229;
},
{
glyphname = uniE230;
lastChange = "2018-06-13 22:26:12 +0000";
layers = (
{
layerId = "B559EE20-1059-4689-9947-DD10A3112B42";
paths = (
{
closed = 1;
nodes = (
"0 700 LINE",
"0 400 LINE",
"200 400 LINE",
"200 600 LINE",
"400 600 LINE",
"400 800 LINE",
"100 800 LINE",
"100 700 LINE"
);
},
{
closed = 1;
nodes = (
"600 600 LINE",
"600 800 LINE",
"500 800 LINE",
"500 600 LINE"
);
},
{
closed = 1;
nodes = (
"700 700 LINE",
"800 700 LINE",
"800 800 LINE",
"700 800 LINE"
);
},
{
closed = 1;
nodes = (
"200 200 LINE",
"200 300 LINE",
"0 300 LINE",
"0 200 LINE"
);
},
{
closed = 1;
nodes = (
"100 0 LINE",
"100 100 LINE",
"0 100 LINE",
"0 0 LINE"
);
}
);
width = 800;
}
);
unicode = E230;
},
{
glyphname = uniE231;
lastChange = "2018-06-13 22:26:51 +0000";
layers = (
{
layerId = "B559EE20-1059-4689-9947-DD10A3112B42";
paths = (
{
closed = 1;
nodes = (
"400 700 LINE",
"400 800 LINE",
"0 800 LINE",
"0 400 LINE",
"100 400 LINE",
"100 700 LINE"
);
},
{
closed = 1;
nodes = (
"500 800 LINE",
"500 700 LINE",
"600 700 LINE",
"600 800 LINE"
);
},
{
closed = 1;
nodes = (
"300 500 LINE",
"500 500 LINE",
"500 600 LINE",
"200 600 LINE",
"200 300 LINE",
"0 300 LINE",
"0 200 LINE",
"300 200 LINE"
);
},
{
closed = 1;
nodes = (
"600 600 LINE",
"600 500 LINE",
"700 500 LINE",
"700 600 LINE"
);
},
{
closed = 1;
nodes = (
"400 100 LINE",
"0 100 LINE",
"0 0 LINE",
"500 0 LINE",
"500 300 LINE",
"600 300 LINE",
"600 400 LINE",
"400 400 LINE"
);
},
{
closed = 1;
nodes = (
"700 300 LINE",
"800 300 LINE",
"800 400 LINE",
"700 400 LINE"
);
}
);
width = 800;
}
);
unicode = E231;
},
{
glyphname = uniE232;
lastChange = "2018-06-13 22:27:26 +0000";
layers = (
{
layerId = "B559EE20-1059-4689-9947-DD10A3112B42";
paths = (
{
closed = 1;
nodes = (
"600 200 LINE",
"500 200 LINE",
"500 300 LINE",
"400 300 LINE",
"400 400 LINE",
"300 400 LINE",
"300 500 LINE",
"200 500 LINE",
"200 700 LINE",
"400 700 LINE",
"400 600 LINE",
"600 600 LINE",
"600 700 LINE",
"500 700 LINE",
"500 800 LINE",
"100 800 LINE",
"100 700 LINE",
"0 700 LINE",
"0 500 LINE",
"100 500 LINE",
"100 400 LINE",
"200 400 LINE",
"200 300 LINE",
"0 300 LINE",
"0 200 LINE",
"400 200 LINE",
"400 100 LINE",
"500 100 LINE",
"500 0 LINE",
"700 0 LINE",
"700 100 LINE",
"600 100 LINE"
);
},
{
closed = 1;
nodes = (
"600 500 LINE",
"500 500 LINE",
"500 400 LINE",
"600 400 LINE"
);
},
{
closed = 1;
nodes = (
"100 0 LINE",
"100 100 LINE",
"0 100 LINE",
"0 0 LINE"
);
}
);
width = 800;
}
);
unicode = E232;
},
{
glyphname = uniE233;
lastChange = "2018-06-13 22:27:40 +0000";
layers = (
{
layerId = "B559EE20-1059-4689-9947-DD10A3112B42";
paths = (
{
closed = 1;
nodes = (
"300 500 LINE",
"500 500 LINE",
"500 600 LINE",
"300 600 LINE"
);
},
{
closed = 1;
nodes = (
"300 200 LINE",
"500 200 LINE",
"500 300 LINE",
"300 300 LINE"
);
}
);
width = 800;
}
);
unicode = E233;
},
{
glyphname = uniE234;
lastChange = "2018-06-13 22:28:08 +0000";
layers = (
{
layerId = "B559EE20-1059-4689-9947-DD10A3112B42";
paths = (
{
closed = 1;
nodes = (
"0 500 LINE",
"800 500 LINE",
"800 600 LINE",
"0 600 LINE"
);
},
{
closed = 1;
nodes = (
"0 300 LINE",
"800 300 LINE",
"800 400 LINE",
"0 400 LINE"
);
}
);
width = 800;
}
);
unicode = E234;
},
{
glyphname = uniE235;
lastChange = "2018-06-13 22:28:45 +0000";
layers = (
{
layerId = "B559EE20-1059-4689-9947-DD10A3112B42";
paths = (
{
closed = 1;
nodes = (
"700 700 LINE",
"600 700 LINE",
"600 600 LINE",
"500 600 LINE",
"500 500 LINE",
"0 500 LINE",
"0 0 LINE",
"100 0 LINE",
"100 100 LINE",
"200 100 LINE",
"200 200 LINE",
"300 200 LINE",
"300 300 LINE",
"800 300 LINE",
"800 800 LINE",
"700 800 LINE"
);
}
);
width = 800;
}
);
unicode = E235;
},
{
glyphname = uniE236;
lastChange = "2018-06-13 22:30:09 +0000";
layers = (
{
layerId = "B559EE20-1059-4689-9947-DD10A3112B42";
paths = (
{
closed = 1;
nodes = (
"700 500 LINE",
"600 500 LINE",
"600 700 LINE",
"500 700 LINE",
"500 500 LINE",
"400 500 LINE",
"400 700 LINE",
"300 700 LINE",
"300 500 LINE",
"200 500 LINE",
"200 700 LINE",
"100 700 LINE",
"100 400 LINE",
"0 400 LINE",
"0 100 LINE",
"100 100 LINE",
"100 300 LINE",
"200 300 LINE",
"200 100 LINE",
"300 100 LINE",
"300 300 LINE",
"400 300 LINE",
"400 100 LINE",
"500 100 LINE",
"500 300 LINE",
"600 300 LINE",
"600 100 LINE",
"700 100 LINE",
"700 400 LINE",
"800 400 LINE",
"800 700 LINE",
"700 700 LINE"
);
}
);
width = 800;
}
);
unicode = E236;
},
{
glyphname = uniE237;
lastChange = "2018-06-13 22:30:52 +0000";
layers = (
{
components = (
{
name = uniE106;
},
{
name = uniE106;
transform = "{1, 0, 0, 1, 100, 100}";
},
{
name = uniE106;
transform = "{1, 0, 0, 1, 0, 300}";
},
{
name = uniE106;
transform = "{1, 0, 0, 1, 100, 500}";
},
{
name = uniE106;
transform = "{1, 0, 0, 1, 0, 600}";
},
{
name = uniE106;
transform = "{1, 0, 0, 1, 600, 500}";
},
{
name = uniE106;
transform = "{1, 0, 0, 1, 700, 600}";
},
{
name = uniE106;
transform = "{1, 0, 0, 1, 700, 300}";
},
{
name = uniE106;
transform = "{1, 0, 0, 1, 600, 100}";
},
{
name = uniE106;
transform = "{1, 0, 0, 1, 700, 0}";
}
);
layerId = "B559EE20-1059-4689-9947-DD10A3112B42";
paths = (
{
closed = 1;
nodes = (
"200 400 LINE",
"600 400 LINE",
"600 500 LINE",
"200 500 LINE"
);
},
{
closed = 1;
nodes = (
"200 200 LINE",
"600 200 LINE",
"600 300 LINE",
"200 300 LINE"
);
}
);
width = 800;
}
);
unicode = E237;
},
{
glyphname = uniE239;
lastChange = "2018-06-13 22:32:37 +0000";
layers = (
{
layerId = "B559EE20-1059-4689-9947-DD10A3112B42";
paths = (
{
closed = 1;
nodes = (
"400 400 LINE",
"300 400 LINE",
"300 500 LINE",
"0 500 LINE",
"0 300 LINE",
"200 300 LINE",
"200 200 LINE",
"300 200 LINE",
"300 0 LINE",
"500 0 LINE",
"500 300 LINE",
"400 300 LINE"
);
},
{
closed = 1;
nodes = (
"0 100 LINE",
"100 100 LINE",
"100 200 LINE",
"0 200 LINE"
);
},
{
closed = 1;
nodes = (
"200 0 LINE",
"200 100 LINE",
"100 100 LINE",
"100 0 LINE"
);
}
);
width = 800;
}
);
unicode = E239;
},
{
glyphname = uniE240;
lastChange = "2018-06-13 22:33:25 +0000";
layers = (
{
layerId = "B559EE20-1059-4689-9947-DD10A3112B42";
paths = (
{
closed = 1;
nodes = (
"0 800 LINE",
"-100 800 LINE",
"-100 0 LINE",
"700 0 LINE",
"700 100 LINE",
"0 100 LINE",
"0 300 LINE",
"400 300 LINE",
"400 400 LINE",
"0 400 LINE",
"0 600 LINE",
"200 600 LINE",
"200 700 LINE",
"0 700 LINE"
);
},
{
closed = 1;
nodes = (
"200 800 LINE",
"200 700 LINE",
"300 700 LINE",
"300 800 LINE"
);
},
{
closed = 1;
nodes = (
"700 700 LINE",
"300 700 LINE",
"300 600 LINE",
"700 600 LINE"
);
},
{
closed = 1;
nodes = (
"300 600 LINE",
"200 600 LINE",
"200 500 LINE",
"300 500 LINE"
);
},
{
closed = 1;
nodes = (
"400 500 LINE",
"400 400 LINE",
"500 400 LINE",
"500 500 LINE"
);
},
{
closed = 1;
nodes = (
"700 400 LINE",
"500 400 LINE",
"500 300 LINE",
"700 300 LINE"
);
},
{
closed = 1;
nodes = (
"500 200 LINE",
"500 300 LINE",
"400 300 LINE",
"400 200 LINE"
);
}
);
width = 800;
}
);
unicode = E240;
},
{
glyphname = uniE243;
lastChange = "2018-06-13 22:34:55 +0000";
layers = (
{
layerId = "B559EE20-1059-4689-9947-DD10A3112B42";
paths = (
{
closed = 1;
nodes = (
"300 800 LINE",
"300 700 LINE",
"500 700 LINE",
"500 800 LINE"
);
},
{
closed = 1;
nodes = (
"200 700 LINE",
"200 600 LINE",
"300 600 LINE",
"300 700 LINE"
);
},
{
closed = 1;
nodes = (
"600 700 LINE",
"500 700 LINE",
"500 600 LINE",
"600 600 LINE"
);
},
{
closed = 1;
nodes = (
"100 600 LINE",
"100 400 LINE",
"200 400 LINE",
"200 600 LINE"
);
},
{
closed = 1;
nodes = (
"700 600 LINE",
"600 600 LINE",
"600 400 LINE",
"700 400 LINE"
);
},
{
closed = 1;
nodes = (
"700 300 LINE",
"600 300 LINE",
"600 200 LINE",
"500 200 LINE",
"500 100 LINE",
"300 100 LINE",
"300 200 LINE",
"200 200 LINE",
"200 300 LINE",
"100 300 LINE",
"100 400 LINE",
"0 400 LINE",
"0 0 LINE",
"800 0 LINE",
"800 400 LINE",
"700 400 LINE"
);
},
{
closed = 1;
nodes = (
"200 300 LINE",
"300 300 LINE",
"300 200 LINE",
"500 200 LINE",
"500 300 LINE",
"600 300 LINE",
"600 400 LINE",
"200 400 LINE"
);
}
);
width = 800;
}
);
unicode = E243;
},
{
glyphname = uniE244;
lastChange = "2018-06-13 22:35:10 +0000";
layers = (
{
layerId = "B559EE20-1059-4689-9947-DD10A3112B42";
paths = (
{
closed = 1;
nodes = (
"0 700 LINE",
"200 700 LINE",
"200 800 LINE",
"0 800 LINE"
);
},
{
closed = 1;
nodes = (
"300 700 LINE",
"400 700 LINE",
"400 800 LINE",
"300 800 LINE"
);
},
{
closed = 1;
nodes = (
"500 700 LINE",
"800 700 LINE",
"800 800 LINE",
"500 800 LINE"
);
}
);
width = 800;
}
);
unicode = E244;
},
{
glyphname = uniE248;
lastChange = "2018-06-13 22:36:56 +0000";
layers = (
{
layerId = "B559EE20-1059-4689-9947-DD10A3112B42";
paths = (
{
closed = 1;
nodes = (
"0 800 LINE",
"0 0 LINE",
"100 0 LINE",
"100 300 LINE",
"200 300 LINE",
"200 500 LINE",
"300 500 LINE",
"300 600 LINE",
"500 600 LINE",
"500 700 LINE",
"800 700 LINE",
"800 800 LINE"
);
}
);
width = 800;
}
);
unicode = E248;
},
{
glyphname = uniE249;
lastChange = "2018-06-13 22:37:55 +0000";
layers = (
{
layerId = "B559EE20-1059-4689-9947-DD10A3112B42";
paths = (
{
closed = 1;
nodes = (
"500 800 LINE",
"300 800 LINE",
"300 700 LINE",
"400 700 LINE",
"400 600 LINE",
"300 600 LINE",
"300 200 LINE",
"400 200 LINE",
"400 100 LINE",
"300 100 LINE",
"300 0 LINE",
"500 0 LINE",
"500 300 LINE",
"800 300 LINE",
"800 500 LINE",
"500 500 LINE"
);
},
{
closed = 1;
nodes = (
"200 100 LINE",
"200 700 LINE",
"100 700 LINE",
"100 100 LINE"
);
}
);
width = 800;
}
);
unicode = E249;
},
{
glyphname = uniE250;
lastChange = "2018-06-13 22:38:28 +0000";
layers = (
{
layerId = "B559EE20-1059-4689-9947-DD10A3112B42";
paths = (
{
closed = 1;
nodes = (
"600 700 LINE",
"600 600 LINE",
"700 600 LINE",
"700 700 LINE"
);
},
{
closed = 1;
nodes = (
"300 500 LINE",
"600 500 LINE",
"600 600 LINE",
"300 600 LINE"
);
},
{
closed = 1;
nodes = (
"700 500 LINE",
"800 500 LINE",
"800 600 LINE",
"700 600 LINE"
);
},
{
closed = 1;
nodes = (
"300 200 LINE",
"300 500 LINE",
"200 500 LINE",
"200 200 LINE"
);
},
{
closed = 1;
nodes = (
"700 400 LINE",
"700 500 LINE",
"600 500 LINE",
"600 400 LINE"
);
},
{
closed = 1;
nodes = (
"600 200 LINE",
"600 100 LINE",
"500 100 LINE",
"500 0 LINE",
"800 0 LINE",
"800 300 LINE",
"700 300 LINE",
"700 200 LINE"
);
},
{
closed = 1;
nodes = (
"100 100 LINE",
"200 100 LINE",
"200 200 LINE",
"100 200 LINE"
);
},
{
closed = 1;
nodes = (
"400 200 LINE",
"300 200 LINE",
"300 100 LINE",
"400 100 LINE"
);
},
{
closed = 1;
nodes = (
"300 0 LINE",
"300 100 LINE",
"200 100 LINE",
"200 0 LINE"
);
}
);
width = 800;
}
);
unicode = E250;
},
{
glyphname = uniE252;
lastChange = "2018-06-13 22:39:07 +0000";
layers = (
{
components = (
{
name = uniE106;
transform = "{1, 0, 0, 1, 100, 100}";
},
{
name = uniE106;
transform = "{1, 0, 0, 1, 300, 100}";
},
{
name = uniE106;
transform = "{1, 0, 0, 1, 500, 100}";
},
{
name = uniE106;
transform = "{1, 0, 0, 1, 700, 100}";
}
);
layerId = "B559EE20-1059-4689-9947-DD10A3112B42";
paths = (
{
closed = 1;
nodes = (
"0 0 LINE",
"800 0 LINE",
"800 100 LINE",
"0 100 LINE"
);
}
);
width = 800;
}
);
unicode = E252;
},
{
glyphname = uniE253;
lastChange = "2018-06-13 22:39:46 +0000";
layers = (
{
components = (
{
name = uniE106;
transform = "{1, 0, 0, 1, 200, 600}";
},
{
name = uniE106;
transform = "{1, 0, 0, 1, 100, 700}";
},
{
name = uniE106;
transform = "{1, 0, 0, 1, 300, 700}";
},
{
name = uniE106;
transform = "{1, 0, 0, 1, 400, 600}";
},
{
name = uniE106;
transform = "{1, 0, 0, 1, 500, 700}";
},
{
name = uniE106;
transform = "{1, 0, 0, 1, 700, 700}";
}
);
layerId = "B559EE20-1059-4689-9947-DD10A3112B42";
paths = (
{
closed = 1;
nodes = (
"0 600 LINE",
"100 600 LINE",
"100 800 LINE",
"0 800 LINE"
);
},
{
closed = 1;
nodes = (
"600 600 LINE",
"800 600 LINE",
"800 700 LINE",
"600 700 LINE"
);
}
);
width = 800;
}
);
unicode = E253;
},
{
glyphname = uniE254;
lastChange = "2018-06-13 22:40:26 +0000";
layers = (
{
layerId = "B559EE20-1059-4689-9947-DD10A3112B42";
paths = (
{
closed = 1;
nodes = (
"200 700 LINE",
"200 800 LINE",
"0 800 LINE",
"0 500 LINE",
"200 500 LINE",
"200 600 LINE",
"100 600 LINE",
"100 700 LINE"
);
},
{
closed = 1;
nodes = (
"300 800 LINE",
"300 700 LINE",
"400 700 LINE",
"400 800 LINE"
);
},
{
closed = 1;
nodes = (
"500 800 LINE",
"500 700 LINE",
"600 700 LINE",
"600 600 LINE",
"500 600 LINE",
"500 500 LINE",
"800 500 LINE",
"800 800 LINE"
);
},
{
closed = 1;
nodes = (
"200 600 LINE",
"300 600 LINE",
"300 700 LINE",
"200 700 LINE"
);
},
{
closed = 1;
nodes = (
"400 600 LINE",
"500 600 LINE",
"500 700 LINE",
"400 700 LINE"
);
},
{
closed = 1;
nodes = (
"400 500 LINE",
"400 600 LINE",
"300 600 LINE",
"300 500 LINE"
);
}
);
width = 800;
}
);
unicode = E254;
},
{
glyphname = uniE255;
lastChange = "2018-06-13 22:40:58 +0000";
layers = (
{
layerId = "B559EE20-1059-4689-9947-DD10A3112B42";
paths = (
{
closed = 1;
nodes = (
"600 700 LINE",
"100 700 LINE",
"100 0 LINE",
"200 0 LINE",
"200 100 LINE",
"700 100 LINE",
"700 800 LINE",
"600 800 LINE"
);
},
{
closed = 1;
nodes = (
"300 600 LINE",
"300 500 LINE",
"200 500 LINE",
"200 600 LINE"
);
},
{
closed = 1;
nodes = (
"400 400 LINE",
"400 200 LINE",
"200 200 LINE",
"200 400 LINE",
"400 400 LINE",
"400 600 LINE",
"600 600 LINE",
"600 400 LINE"
);
},
{
closed = 1;
nodes = (
"500 200 LINE",
"500 300 LINE",
"600 300 LINE",
"600 200 LINE"
);
}
);
width = 800;
}
);
unicode = E255;
},
{
glyphname = uniE256;
lastChange = "2018-06-13 22:41:14 +0000";
layers = (
{
layerId = "B559EE20-1059-4689-9947-DD10A3112B42";
paths = (
{
closed = 1;
nodes = (
"100 100 LINE",
"700 100 LINE",
"700 700 LINE",
"100 700 LINE"
);
}
);
width = 800;
}
);
unicode = E256;
},
{
glyphname = uniE257;
lastChange = "2018-06-13 22:42:28 +0000";
layers = (
{
layerId = "B559EE20-1059-4689-9947-DD10A3112B42";
paths = (
{
closed = 1;
nodes = (
"0 700 LINE",
"300 700 LINE",
"300 800 LINE",
"0 800 LINE"
);
},
{
closed = 1;
nodes = (
"0 500 LINE",
"400 500 LINE",
"400 600 LINE",
"0 600 LINE"
);
},
{
closed = 1;
nodes = (
"0 300 LINE",
"200 300 LINE",
"200 400 LINE",
"0 400 LINE"
);
},
{
closed = 1;
nodes = (
"100 100 LINE",
"500 100 LINE",
"500 200 LINE",
"100 200 LINE"
);
},
{
closed = 1;
nodes = (
"600 100 LINE",
"800 100 LINE",
"800 200 LINE",
"600 200 LINE"
);
},
{
closed = 1;
nodes = (
"700 300 LINE",
"800 300 LINE",
"800 400 LINE",
"700 400 LINE"
);
},
{
closed = 1;
nodes = (
"300 300 LINE",
"600 300 LINE",
"600 400 LINE",
"300 400 LINE"
);
},
{
closed = 1;
nodes = (
"500 500 LINE",
"800 500 LINE",
"800 600 LINE",
"500 600 LINE"
);
},
{
closed = 1;
nodes = (
"600 700 LINE",
"800 700 LINE",
"800 800 LINE",
"600 800 LINE"
);
},
{
closed = 1;
nodes = (
"400 700 LINE",
"500 700 LINE",
"500 800 LINE",
"400 800 LINE"
);
}
);
width = 800;
}
);
unicode = E257;
},
{
glyphname = uniE258;
lastChange = "2018-06-13 22:43:50 +0000";
layers = (
{
layerId = "B559EE20-1059-4689-9947-DD10A3112B42";
paths = (
{
closed = 1;
nodes = (
"800 800 LINE",
"400 800 LINE",
"400 700 LINE",
"300 700 LINE",
"300 600 LINE",
"200 600 LINE",
"200 500 LINE",
"0 500 LINE",
"0 400 LINE",
"200 400 LINE",
"200 300 LINE",
"300 300 LINE",
"300 200 LINE",
"400 200 LINE",
"400 100 LINE",
"500 100 LINE",
"500 0 LINE",
"600 0 LINE",
"600 100 LINE",
"700 100 LINE",
"700 0 LINE",
"800 0 LINE",
"800 200 LINE",
"500 200 LINE",
"500 300 LINE",
"400 300 LINE",
"400 400 LINE",
"300 400 LINE",
"300 500 LINE",
"400 500 LINE",
"400 600 LINE",
"500 600 LINE",
"500 700 LINE",
"800 700 LINE"
);
},
{
closed = 1;
nodes = (
"300 800 LINE",
"100 800 LINE",
"100 600 LINE",
"200 600 LINE",
"200 700 LINE",
"300 700 LINE"
);
},
{
closed = 1;
nodes = (
"400 400 LINE",
"500 400 LINE",
"500 300 LINE",
"800 300 LINE",
"800 400 LINE",
"600 400 LINE",
"600 500 LINE",
"800 500 LINE",
"800 600 LINE",
"500 600 LINE",
"500 500 LINE",
"400 500 LINE"
);
},
{
closed = 1;
nodes = (
"200 200 LINE",
"200 300 LINE",
"100 300 LINE",
"100 0 LINE",
"400 0 LINE",
"400 100 LINE",
"300 100 LINE",
"300 200 LINE"
);
}
);
width = 800;
}
);
unicode = E258;
},
{
glyphname = uniE259;
lastChange = "2018-06-13 22:47:09 +0000";
layers = (
{
layerId = "B559EE20-1059-4689-9947-DD10A3112B42";
paths = (
{
closed = 1;
nodes = (
"800 800 LINE",
"600 800 LINE",
"600 700 LINE",
"500 700 LINE",
"500 800 LINE",
"400 800 LINE",
"400 700 LINE",
"300 700 LINE",
"300 800 LINE",
"200 800 LINE",
"200 700 LINE",
"0 700 LINE",
"0 600 LINE",
"200 600 LINE",
"200 500 LINE",
"0 500 LINE",
"0 400 LINE",
"200 400 LINE",
"200 300 LINE",
"0 300 LINE",
"0 0 LINE",
"100 0 LINE",
"100 100 LINE",
"200 100 LINE",
"200 200 LINE",
"300 200 LINE",
"300 300 LINE",
"400 300 LINE",
"400 400 LINE",
"500 400 LINE",
"500 500 LINE",
"600 500 LINE",
"600 600 LINE",
"700 600 LINE",
"700 700 LINE",
"800 700 LINE"
);
},
{
closed = 1;
nodes = (
"600 400 LINE",
"500 400 LINE",
"500 300 LINE",
"400 300 LINE",
"400 200 LINE",
"300 200 LINE",
"300 100 LINE",
"200 100 LINE",
"200 0 LINE",
"800 0 LINE",
"800 100 LINE",
"500 100 LINE",
"500 200 LINE",
"800 200 LINE",
"800 300 LINE",
"700 300 LINE",
"700 400 LINE",
"800 400 LINE",
"800 600 LINE",
"700 600 LINE",
"700 500 LINE",
"600 500 LINE"
);
},
{
closed = 1;
nodes = (
"300 600 LINE",
"400 600 LINE",
"400 500 LINE",
"300 500 LINE"
);
}
);
width = 800;
}
);
unicode = E259;
},
{
glyphname = uniE260;
lastChange = "2018-06-13 22:47:39 +0000";
layers = (
{
layerId = "B559EE20-1059-4689-9947-DD10A3112B42";
paths = (
{
closed = 1;
nodes = (
"0 400 LINE",
"100 400 LINE",
"100 500 LINE",
"0 500 LINE"
);
},
{
closed = 1;
nodes = (
"100 300 LINE",
"200 300 LINE",
"200 400 LINE",
"100 400 LINE"
);
},
{
closed = 1;
nodes = (
"200 400 LINE",
"300 400 LINE",
"300 500 LINE",
"200 500 LINE"
);
},
{
closed = 1;
nodes = (
"300 300 LINE",
"400 300 LINE",
"400 400 LINE",
"300 400 LINE"
);
},
{
closed = 1;
nodes = (
"400 400 LINE",
"500 400 LINE",
"500 500 LINE",
"400 500 LINE"
);
},
{
closed = 1;
nodes = (
"500 300 LINE",
"600 300 LINE",
"600 400 LINE",
"500 400 LINE"
);
},
{
closed = 1;
nodes = (
"600 400 LINE",
"700 400 LINE",
"700 500 LINE",
"600 500 LINE"
);
},
{
closed = 1;
nodes = (
"700 300 LINE",
"800 300 LINE",
"800 400 LINE",
"700 400 LINE"
);
}
);
width = 800;
}
);
unicode = E260;
},
{
glyphname = uniE261;
lastChange = "2018-06-13 22:48:16 +0000";
layers = (
{
components = (
{
name = uniE106;
transform = "{1, 0, 0, 1, 100, 200}";
},
{
name = uniE106;
transform = "{1, 0, 0, 1, 700, 200}";
},
{
name = uniE106;
transform = "{1, 0, 0, 1, 500, 400}";
},
{
name = uniE106;
transform = "{1, 0, 0, 1, 600, 500}";
},
{
name = uniE106;
transform = "{1, 0, 0, 1, 700, 600}";
},
{
name = uniE106;
transform = "{1, 0, 0, 1, 600, 700}";
},
{
name = uniE106;
transform = "{1, 0, 0, 1, 500, 600}";
},
{
name = uniE106;
transform = "{1, 0, 0, 1, 300, 400}";
},
{
name = uniE106;
transform = "{1, 0, 0, 1, 200, 500}";
},
{
name = uniE106;
transform = "{1, 0, 0, 1, 400, 500}";
},
{
name = uniE106;
transform = "{1, 0, 0, 1, 300, 600}";
},
{
name = uniE106;
transform = "{1, 0, 0, 1, 400, 700}";
},
{
name = uniE106;
transform = "{1, 0, 0, 1, 200, 700}";
},
{
name = uniE106;
transform = "{1, 0, 0, 1, 0, 700}";
},
{
name = uniE106;
transform = "{1, 0, 0, 1, 100, 600}";
}
);
layerId = "B559EE20-1059-4689-9947-DD10A3112B42";
paths = (
{
closed = 1;
nodes = (
"500 200 LINE",
"500 400 LINE",
"400 400 LINE",
"400 200 LINE",
"200 200 LINE",
"200 100 LINE",
"300 100 LINE",
"300 0 LINE",
"600 0 LINE",
"600 100 LINE",
"700 100 LINE",
"700 200 LINE"
);
}
);
width = 800;
}
);
unicode = E261;
},
{
glyphname = uniE262;
lastChange = "2018-06-13 22:49:00 +0000";
layers = (
{
layerId = "B559EE20-1059-4689-9947-DD10A3112B42";
paths = (
{
closed = 1;
nodes = (
"0 500 LINE",
"100 500 LINE",
"100 800 LINE",
"0 800 LINE"
);
},
{
closed = 1;
nodes = (
"200 400 LINE",
"300 400 LINE",
"300 800 LINE",
"200 800 LINE"
);
},
{
closed = 1;
nodes = (
"100 200 LINE",
"200 200 LINE",
"200 400 LINE",
"100 400 LINE"
);
},
{
closed = 1;
nodes = (
"200 100 LINE",
"400 100 LINE",
"400 200 LINE",
"200 200 LINE"
);
},
{
closed = 1;
nodes = (
"400 200 LINE",
"800 200 LINE",
"800 300 LINE",
"400 300 LINE"
);
},
{
closed = 1;
nodes = (
"600 400 LINE",
"800 400 LINE",
"800 500 LINE",
"600 500 LINE"
);
},
{
closed = 1;
nodes = (
"400 400 LINE",
"500 400 LINE",
"500 500 LINE",
"400 500 LINE"
);
},
{
closed = 1;
nodes = (
"400 600 LINE",
"500 600 LINE",
"500 800 LINE",
"400 800 LINE"
);
},
{
closed = 1;
nodes = (
"600 600 LINE",
"700 600 LINE",
"700 700 LINE",
"600 700 LINE"
);
},
{
closed = 1;
nodes = (
"500 0 LINE",
"800 0 LINE",
"800 100 LINE",
"500 100 LINE"
);
}
);
width = 800;
}
);
unicode = E262;
},
{
glyphname = uniE263;
lastChange = "2018-06-13 22:50:05 +0000";
layers = (
{
layerId = "B559EE20-1059-4689-9947-DD10A3112B42";
paths = (
{
closed = 1;
nodes = (
"600 800 LINE",
"500 800 LINE",
"500 700 LINE",
"400 700 LINE",
"400 800 LINE",
"300 800 LINE",
"300 700 LINE",
"200 700 LINE",
"200 800 LINE",
"100 800 LINE",
"100 700 LINE",
"0 700 LINE",
"0 500 LINE",
"100 500 LINE",
"100 600 LINE",
"200 600 LINE",
"200 500 LINE",
"100 500 LINE",
"100 400 LINE",
"200 400 LINE",
"200 300 LINE",
"300 300 LINE",
"300 200 LINE",
"400 200 LINE",
"400 300 LINE",
"500 300 LINE",
"500 400 LINE",
"600 400 LINE",
"600 500 LINE",
"500 500 LINE",
"500 600 LINE",
"600 600 LINE",
"600 500 LINE",
"700 500 LINE",
"700 700 LINE",
"600 700 LINE"
);
},
{
closed = 1;
nodes = (
"300 500 LINE",
"300 600 LINE",
"400 600 LINE",
"400 500 LINE"
);
},
{
closed = 1;
nodes = (
"300 0 LINE",
"300 100 LINE",
"100 100 LINE",
"100 0 LINE"
);
},
{
closed = 1;
nodes = (
"600 0 LINE",
"600 100 LINE",
"400 100 LINE",
"400 0 LINE"
);
}
);
width = 800;
}
);
unicode = E263;
},
{
glyphname = uniE264;
lastChange = "2018-06-13 22:50:36 +0000";
layers = (
{
components = (
{
name = uniE106;
},
{
name = uniE106;
transform = "{1, 0, 0, 1, 100, 100}";
},
{
name = uniE106;
transform = "{1, 0, 0, 1, 200, 200}";
},
{
name = uniE106;
transform = "{1, 0, 0, 1, 200, 500}";
},
{
name = uniE106;
transform = "{1, 0, 0, 1, 100, 600}";
},
{
name = uniE106;
transform = "{1, 0, 0, 1, 0, 700}";
},
{
name = uniE106;
transform = "{1, 0, 0, 1, 500, 500}";
},
{
name = uniE106;
transform = "{1, 0, 0, 1, 600, 600}";
},
{
name = uniE106;
transform = "{1, 0, 0, 1, 700, 700}";
},
{
name = uniE106;
transform = "{1, 0, 0, 1, 700, 0}";
},
{
name = uniE106;
transform = "{1, 0, 0, 1, 600, 100}";
},
{
name = uniE106;
transform = "{1, 0, 0, 1, 500, 200}";
}
);
layerId = "B559EE20-1059-4689-9947-DD10A3112B42";
paths = (
{
closed = 1;
nodes = (
"300 300 LINE",
"500 300 LINE",
"500 500 LINE",
"300 500 LINE"
);
}
);
width = 800;
}
);
unicode = E264;
},
{
glyphname = uniE265;
lastChange = "2018-06-13 22:51:05 +0000";
layers = (
{
components = (
{
name = uniE106;
transform = "{1, 0, 0, 1, 0, 100}";
},
{
name = uniE106;
transform = "{1, 0, 0, 1, 0, 300}";
},
{
name = uniE106;
transform = "{1, 0, 0, 1, 0, 700}";
},
{
name = uniE106;
transform = "{1, 0, 0, 1, 700, 700}";
},
{
name = uniE106;
transform = "{1, 0, 0, 1, 700, 300}";
},
{
name = uniE106;
transform = "{1, 0, 0, 1, 700, 100}";
}
);
layerId = "B559EE20-1059-4689-9947-DD10A3112B42";
paths = (
{
closed = 1;
nodes = (
"600 600 LINE",
"600 800 LINE",
"500 800 LINE",
"500 600 LINE",
"300 600 LINE",
"300 800 LINE",
"200 800 LINE",
"200 600 LINE",
"0 600 LINE",
"0 500 LINE",
"200 500 LINE",
"200 0 LINE",
"300 0 LINE",
"300 200 LINE",
"500 200 LINE",
"500 0 LINE",
"600 0 LINE",
"600 500 LINE",
"800 500 LINE",
"800 600 LINE"
);
},
{
closed = 1;
nodes = (
"300 300 LINE",
"300 500 LINE",
"500 500 LINE",
"500 300 LINE"
);
}
);
width = 800;
}
);
unicode = E265;
},
{
glyphname = uniE266;
lastChange = "2018-06-13 22:51:44 +0000";
layers = (
{
layerId = "B559EE20-1059-4689-9947-DD10A3112B42";
paths = (
{
closed = 1;
nodes = (
"300 300 LINE",
"400 300 LINE",
"400 400 LINE",
"300 400 LINE",
"300 500 LINE",
"400 500 LINE",
"400 600 LINE",
"300 600 LINE",
"300 700 LINE",
"400 700 LINE",
"400 800 LINE",
"0 800 LINE",
"0 700 LINE",
"200 700 LINE",
"200 600 LINE",
"0 600 LINE",
"0 500 LINE",
"200 500 LINE",
"200 400 LINE",
"0 400 LINE",
"0 300 LINE",
"200 300 LINE",
"200 200 LINE",
"0 200 LINE",
"0 100 LINE",
"200 100 LINE",
"200 0 LINE",
"300 0 LINE",
"300 100 LINE",
"400 100 LINE",
"400 200 LINE",
"300 200 LINE"
);
},
{
closed = 1;
nodes = (
"800 800 LINE",
"500 800 LINE",
"500 700 LINE",
"400 700 LINE",
"400 600 LINE",
"500 600 LINE",
"500 500 LINE",
"400 500 LINE",
"400 400 LINE",
"500 400 LINE",
"500 300 LINE",
"400 300 LINE",
"400 200 LINE",
"500 200 LINE",
"500 100 LINE",
"400 100 LINE",
"400 0 LINE",
"600 0 LINE",
"600 100 LINE",
"800 100 LINE",
"800 200 LINE",
"600 200 LINE",
"600 300 LINE",
"800 300 LINE",
"800 400 LINE",
"600 400 LINE",
"600 500 LINE",
"800 500 LINE",
"800 600 LINE",
"600 600 LINE",
"600 700 LINE",
"800 700 LINE"
);
}
);
width = 800;
}
);
unicode = E266;
},
{
glyphname = uniE267;
lastChange = "2018-06-13 22:52:01 +0000";
layers = (
{
layerId = "B559EE20-1059-4689-9947-DD10A3112B42";
paths = (
{
closed = 1;
nodes = (
"0 0 LINE",
"800 0 LINE",
"800 800 LINE",
"0 800 LINE"
);
}
);
width = 800;
}
);
unicode = E267;
},
{
glyphname = uniE268;
lastChange = "2018-06-13 22:52:41 +0000";
layers = (
{
layerId = "B559EE20-1059-4689-9947-DD10A3112B42";
paths = (
{
closed = 1;
nodes = (
"100 700 LINE",
"300 700 LINE",
"300 600 LINE",
"200 600 LINE",
"200 500 LINE",
"600 500 LINE",
"600 600 LINE",
"500 600 LINE",
"500 700 LINE",
"700 700 LINE",
"700 800 LINE",
"100 800 LINE"
);
},
{
closed = 1;
nodes = (
"100 500 LINE",
"100 700 LINE",
"0 700 LINE",
"0 500 LINE"
);
},
{
closed = 1;
nodes = (
"700 500 LINE",
"800 500 LINE",
"800 700 LINE",
"700 700 LINE"
);
},
{
closed = 1;
nodes = (
"0 100 LINE",
"100 100 LINE",
"100 400 LINE",
"0 400 LINE"
);
},
{
closed = 1;
nodes = (
"600 200 LINE",
"600 400 LINE",
"200 400 LINE",
"200 200 LINE",
"300 200 LINE",
"300 100 LINE",
"100 100 LINE",
"100 0 LINE",
"700 0 LINE",
"700 100 LINE",
"500 100 LINE",
"500 200 LINE"
);
},
{
closed = 1;
nodes = (
"800 100 LINE",
"800 400 LINE",
"700 400 LINE",
"700 100 LINE"
);
}
);
width = 800;
}
);
unicode = E268;
},
{
glyphname = uniE269;
lastChange = "2018-06-13 22:53:13 +0000";
layers = (
{
components = (
{
name = uniE106;
transform = "{1, 0, 0, 1, 100, 0}";
},
{
name = uniE106;
transform = "{1, 0, 0, 1, 100, 200}";
},
{
name = uniE106;
transform = "{1, 0, 0, 1, 100, 400}";
},
{
name = uniE106;
transform = "{1, 0, 0, 1, 100, 600}";
},
{
name = uniE106;
transform = "{1, 0, 0, 1, 300, 600}";
},
{
name = uniE106;
transform = "{1, 0, 0, 1, 500, 600}";
},
{
name = uniE106;
transform = "{1, 0, 0, 1, 700, 600}";
}
);
layerId = "B559EE20-1059-4689-9947-DD10A3112B42";
paths = (
{
closed = 1;
nodes = (
"300 500 LINE",
"300 0 LINE",
"500 0 LINE",
"500 300 LINE",
"800 300 LINE",
"800 500 LINE"
);
},
{
closed = 1;
nodes = (
"600 0 LINE",
"700 0 LINE",
"700 100 LINE",
"800 100 LINE",
"800 200 LINE",
"600 200 LINE"
);
}
);
width = 800;
}
);
unicode = E269;
},
{
glyphname = uniE270;
lastChange = "2018-06-13 22:53:50 +0000";
layers = (
{
components = (
{
name = uniE106;
transform = "{1, 0, 0, 1, 0, 100}";
},
{
name = uniE106;
transform = "{1, 0, 0, 1, 100, 0}";
},
{
name = uniE106;
transform = "{1, 0, 0, 1, 600, 0}";
},
{
name = uniE106;
transform = "{1, 0, 0, 1, 700, 100}";
}
);
layerId = "B559EE20-1059-4689-9947-DD10A3112B42";
paths = (
{
closed = 1;
nodes = (
"100 700 LINE",
"0 700 LINE",
"0 600 LINE",
"200 600 LINE",
"200 800 LINE",
"100 800 LINE"
);
},
{
closed = 1;
nodes = (
"300 800 LINE",
"300 600 LINE",
"200 600 LINE",
"200 500 LINE",
"300 500 LINE",
"300 300 LINE",
"500 300 LINE",
"500 500 LINE",
"600 500 LINE",
"600 600 LINE",
"500 600 LINE",
"500 800 LINE"
);
},
{
closed = 1;
nodes = (
"700 800 LINE",
"600 800 LINE",
"600 600 LINE",
"800 600 LINE",
"800 700 LINE",
"700 700 LINE"
);
},
{
closed = 1;
nodes = (
"500 200 LINE",
"300 200 LINE",
"300 300 LINE",
"200 300 LINE",
"200 500 LINE",
"100 500 LINE",
"100 200 LINE",
"200 200 LINE",
"200 100 LINE",
"600 100 LINE",
"600 200 LINE",
"700 200 LINE",
"700 500 LINE",
"600 500 LINE",
"600 300 LINE",
"500 300 LINE"
);
}
);
width = 800;
}
);
unicode = E270;
},
{
glyphname = uniE271;
lastChange = "2018-06-13 22:54:28 +0000";
layers = (
{
layerId = "B559EE20-1059-4689-9947-DD10A3112B42";
paths = (
{
closed = 1;
nodes = (
"400 700 LINE",
"300 700 LINE",
"300 800 LINE",
"200 800 LINE",
"200 500 LINE",
"300 500 LINE",
"300 600 LINE",
"400 600 LINE"
);
},
{
closed = 1;
nodes = (
"400 800 LINE",
"400 700 LINE",
"500 700 LINE",
"500 800 LINE"
);
},
{
closed = 1;
nodes = (
"800 700 LINE",
"700 700 LINE",
"700 800 LINE",
"600 800 LINE",
"600 700 LINE",
"500 700 LINE",
"500 600 LINE",
"600 600 LINE",
"600 500 LINE",
"700 500 LINE",
"700 600 LINE",
"800 600 LINE"
);
},
{
closed = 1;
nodes = (
"500 300 LINE",
"500 400 LINE",
"600 400 LINE",
"600 500 LINE",
"500 500 LINE",
"500 600 LINE",
"400 600 LINE",
"400 500 LINE",
"300 500 LINE",
"300 400 LINE",
"400 400 LINE",
"400 300 LINE"
);
},
{
closed = 1;
nodes = (
"800 500 LINE",
"700 500 LINE",
"700 400 LINE",
"800 400 LINE"
);
},
{
closed = 1;
nodes = (
"400 300 LINE",
"300 300 LINE",
"300 400 LINE",
"200 400 LINE",
"200 100 LINE",
"300 100 LINE",
"300 200 LINE",
"400 200 LINE"
);
},
{
closed = 1;
nodes = (
"500 300 LINE",
"500 200 LINE",
"600 200 LINE",
"600 100 LINE",
"700 100 LINE",
"700 200 LINE",
"800 200 LINE",
"800 300 LINE",
"700 300 LINE",
"700 400 LINE",
"600 400 LINE",
"600 300 LINE"
);
},
{
closed = 1;
nodes = (
"400 200 LINE",
"400 100 LINE",
"300 100 LINE",
"300 0 LINE",
"600 0 LINE",
"600 100 LINE",
"500 100 LINE",
"500 200 LINE"
);
},
{
closed = 1;
nodes = (
"800 100 LINE",
"700 100 LINE",
"700 0 LINE",
"800 0 LINE"
);
}
);
width = 800;
}
);
unicode = E271;
},
{
glyphname = uniE272;
lastChange = "2018-06-13 22:55:38 +0000";
layers = (
{
layerId = "B559EE20-1059-4689-9947-DD10A3112B42";
paths = (
{
closed = 1;
nodes = (
"300 700 LINE",
"400 700 LINE",
"400 800 LINE",
"300 800 LINE"
);
},
{
closed = 1;
nodes = (
"500 800 LINE",
"500 700 LINE",
"600 700 LINE",
"600 800 LINE"
);
},
{
closed = 1;
nodes = (
"700 800 LINE",
"700 700 LINE",
"800 700 LINE",
"800 800 LINE"
);
},
{
closed = 1;
nodes = (
"600 600 LINE",
"500 600 LINE",
"500 700 LINE",
"400 700 LINE",
"400 600 LINE",
"300 600 LINE",
"300 400 LINE",
"400 400 LINE",
"400 500 LINE",
"500 500 LINE",
"500 400 LINE",
"600 400 LINE",
"600 500 LINE",
"700 500 LINE",
"700 400 LINE",
"800 400 LINE",
"800 600 LINE",
"700 600 LINE",
"700 700 LINE",
"600 700 LINE"
);
},
{
closed = 1;
nodes = (
"500 300 LINE",
"500 400 LINE",
"400 400 LINE",
"400 300 LINE",
"300 300 LINE",
"300 200 LINE",
"400 200 LINE",
"400 100 LINE",
"500 100 LINE",
"500 200 LINE",
"600 200 LINE",
"600 100 LINE",
"700 100 LINE",
"700 200 LINE",
"800 200 LINE",
"800 300 LINE",
"700 300 LINE",
"700 400 LINE",
"600 400 LINE",
"600 300 LINE"
);
},
{
closed = 1;
nodes = (
"400 0 LINE",
"400 100 LINE",
"300 100 LINE",
"300 0 LINE"
);
},
{
closed = 1;
nodes = (
"600 0 LINE",
"600 100 LINE",
"500 100 LINE",
"500 0 LINE"
);
},
{
closed = 1;
nodes = (
"800 100 LINE",
"700 100 LINE",
"700 0 LINE",
"800 0 LINE"
);
}
);
width = 800;
}
);
unicode = E272;
},
{
glyphname = uniE273;
lastChange = "2018-06-13 22:59:57 +0000";
layers = (
{
layerId = "B559EE20-1059-4689-9947-DD10A3112B42";
paths = (
{
closed = 1;
nodes = (
"200 800 LINE",
"200 700 LINE",
"300 700 LINE",
"300 800 LINE"
);
},
{
closed = 1;
nodes = (
"500 600 LINE",
"400 600 LINE",
"400 500 LINE",
"500 500 LINE",
"500 0 LINE",
"800 0 LINE",
"800 800 LINE",
"500 800 LINE"
);
},
{
closed = 1;
nodes = (
"100 700 LINE",
"100 600 LINE",
"200 600 LINE",
"200 700 LINE"
);
},
{
closed = 1;
nodes = (
"400 700 LINE",
"300 700 LINE",
"300 600 LINE",
"400 600 LINE"
);
},
{
closed = 1;
nodes = (
"0 500 LINE",
"100 500 LINE",
"100 600 LINE",
"0 600 LINE"
);
},
{
closed = 1;
nodes = (
"100 400 LINE",
"200 400 LINE",
"200 500 LINE",
"100 500 LINE"
);
},
{
closed = 1;
nodes = (
"400 400 LINE",
"400 500 LINE",
"300 500 LINE",
"300 400 LINE"
);
},
{
closed = 1;
nodes = (
"300 300 LINE",
"300 400 LINE",
"200 400 LINE",
"200 300 LINE"
);
},
{
closed = 1;
nodes = (
"200 200 LINE",
"200 300 LINE",
"100 300 LINE",
"100 200 LINE"
);
},
{
closed = 1;
nodes = (
"300 200 LINE",
"200 200 LINE",
"200 100 LINE",
"300 100 LINE"
);
},
{
closed = 1;
nodes = (
"400 100 LINE",
"300 100 LINE",
"300 0 LINE",
"400 0 LINE"
);
}
);
width = 800;
}
);
unicode = E273;
},
{
glyphname = uniE274;
lastChange = "2018-06-13 22:56:30 +0000";
layers = (
{
layerId = "B559EE20-1059-4689-9947-DD10A3112B42";
paths = (
{
closed = 1;
nodes = (
"800 600 LINE",
"0 600 LINE",
"0 0 LINE",
"100 0 LINE",
"100 500 LINE",
"200 500 LINE",
"200 0 LINE",
"300 0 LINE",
"300 500 LINE",
"400 500 LINE",
"400 0 LINE",
"500 0 LINE",
"500 200 LINE",
"600 200 LINE",
"600 0 LINE",
"700 0 LINE",
"700 200 LINE",
"800 200 LINE",
"800 300 LINE",
"700 300 LINE",
"700 500 LINE",
"800 500 LINE"
);
},
{
closed = 1;
nodes = (
"500 300 LINE",
"500 500 LINE",
"600 500 LINE",
"600 300 LINE"
);
}
);
width = 800;
}
);
unicode = E274;
},
{
glyphname = uniE275;
lastChange = "2018-06-13 22:59:33 +0000";
layers = (
{
layerId = "B559EE20-1059-4689-9947-DD10A3112B42";
paths = (
{
closed = 1;
nodes = (
"100 0 LINE",
"200 0 LINE",
"200 200 LINE",
"100 200 LINE"
);
},
{
closed = 1;
nodes = (
"200 200 LINE",
"300 200 LINE",
"300 300 LINE",
"200 300 LINE"
);
},
{
closed = 1;
nodes = (
"100 300 LINE",
"200 300 LINE",
"200 400 LINE",
"100 400 LINE"
);
},
{
closed = 1;
nodes = (
"400 300 LINE",
"500 300 LINE",
"500 400 LINE",
"400 400 LINE"
);
},
{
closed = 1;
nodes = (
"500 200 LINE",
"600 200 LINE",
"600 300 LINE",
"500 300 LINE"
);
},
{
closed = 1;
nodes = (
"400 0 LINE",
"500 0 LINE",
"500 200 LINE",
"400 200 LINE"
);
},
{
closed = 1;
nodes = (
"700 0 LINE",
"800 0 LINE",
"800 200 LINE",
"700 200 LINE"
);
},
{
closed = 1;
nodes = (
"700 300 LINE",
"800 300 LINE",
"800 400 LINE",
"700 400 LINE"
);
},
{
closed = 1;
nodes = (
"0 500 LINE",
"800 500 LINE",
"800 800 LINE",
"0 800 LINE"
);
}
);
width = 800;
}
);
unicode = E275;
},
{
glyphname = uniE276;
lastChange = "2018-06-13 22:57:17 +0000";
layers = (
{
layerId = "B559EE20-1059-4689-9947-DD10A3112B42";
paths = (
{
closed = 1;
nodes = (
"800 700 LINE",
"700 700 LINE",
"700 800 LINE",
"600 800 LINE",
"600 700 LINE",
"500 700 LINE",
"500 800 LINE",
"400 800 LINE",
"400 700 LINE",
"300 700 LINE",
"300 800 LINE",
"200 800 LINE",
"200 700 LINE",
"100 700 LINE",
"100 800 LINE",
"0 800 LINE",
"0 300 LINE",
"100 300 LINE",
"100 400 LINE",
"200 400 LINE",
"200 300 LINE",
"300 300 LINE",
"300 400 LINE",
"400 400 LINE",
"400 300 LINE",
"500 300 LINE",
"500 400 LINE",
"600 400 LINE",
"600 300 LINE",
"700 300 LINE",
"700 400 LINE",
"800 400 LINE",
"800 500 LINE",
"700 500 LINE",
"700 600 LINE",
"800 600 LINE"
);
},
{
closed = 1;
nodes = (
"100 600 LINE",
"200 600 LINE",
"200 500 LINE",
"100 500 LINE"
);
},
{
closed = 1;
nodes = (
"300 600 LINE",
"400 600 LINE",
"400 500 LINE",
"300 500 LINE"
);
},
{
closed = 1;
nodes = (
"500 500 LINE",
"500 600 LINE",
"600 600 LINE",
"600 500 LINE"
);
}
);
width = 800;
}
);
unicode = E276;
},
{
glyphname = uniE277;
lastChange = "2018-06-13 22:58:48 +0000";
layers = (
{
layerId = "B559EE20-1059-4689-9947-DD10A3112B42";
paths = (
{
closed = 1;
nodes = (
"300 500 LINE",
"500 500 LINE",
"500 300 LINE",
"600 300 LINE",
"600 600 LINE",
"300 600 LINE"
);
},
{
closed = 1;
nodes = (
"400 0 LINE",
"400 400 LINE",
"0 400 LINE",
"0 0 LINE"
);
}
);
width = 800;
}
);
unicode = E277;
},
{
glyphname = uniEE4C;
lastChange = "2018-06-13 21:33:29 +0000";
layers = (
{
layerId = "B559EE20-1059-4689-9947-DD10A3112B42";
paths = (
{
closed = 1;
nodes = (
"800 0 LINE",
"800 200 LINE",
"200 200 LINE",
"200 800 LINE",
"0 800 LINE",
"0 0 LINE"
);
}
);
width = 800;
}
);
note = uniEE4C;
unicode = EE4C;
},
